<svg width="159" height="38" viewBox="0 0 159 38" fill="none" xmlns="http://www.w3.org/2000/svg">
<path d="M40.8184 15.0301C40.8184 13.8976 41.1753 13.0236 41.8889 12.4081C42.6272 11.7926 43.7346 11.4849 45.2112 11.4849V13.7006C44.9159 14.0453 44.6205 14.4392 44.3252 14.8823L44.5467 15.0301C45.285 13.9222 46.2326 13.0605 47.3891 12.445C48.5457 11.8049 49.8255 11.4849 51.2282 11.4849C52.4833 11.4849 53.5908 11.768 54.5505 12.3342C55.5103 12.9005 56.2486 13.676 56.7654 14.6608C57.3069 15.6456 57.5775 16.7534 57.5775 17.9844V27.8076C57.5775 28.7924 57.1962 29.5063 56.4332 29.9495C55.6701 30.3926 54.5136 30.6142 52.9632 30.6142V18.6491C52.9632 17.7136 52.6801 16.9504 52.1142 16.3595C51.5726 15.7687 50.7731 15.4732 49.7147 15.4732C48.4596 15.4732 47.426 15.8671 46.6139 16.655C45.8018 17.4182 45.3958 18.3783 45.3958 19.5354V27.8076C45.3958 28.7924 45.0266 29.5063 44.2883 29.9495C43.55 30.3926 42.3935 30.6142 40.8184 30.6142V15.0301ZM69.7382 30.6142C68.2126 30.6142 66.822 30.3188 65.5669 29.7279C64.3118 29.1124 63.3151 28.2876 62.5768 27.2536C61.8385 26.195 61.4694 25.0132 61.4694 23.7084V18.7968C61.4694 17.4182 61.8507 16.1749 62.6137 15.067C63.3768 13.9591 64.3856 13.0851 65.6407 12.445C66.9206 11.8049 68.2986 11.4849 69.7752 11.4849C71.227 11.4849 72.5559 11.7926 73.7619 12.4081C74.9923 12.999 75.9646 13.836 76.6782 14.9193C77.3917 15.9779 77.7487 17.1966 77.7487 18.5753V20.6433C77.7487 21.1849 77.5394 21.6404 77.1211 22.0097C76.7272 22.379 76.223 22.5636 75.6076 22.5636H65.936V23.3761C65.936 24.4347 66.2561 25.2964 66.8958 25.9611C67.5356 26.6258 68.4953 26.9582 69.7752 26.9582C71.0055 26.9582 71.9162 26.6874 72.5068 26.1458C73.1222 25.6041 73.4297 24.9025 73.4297 24.0408C73.8727 23.9916 74.1801 23.9669 74.3525 23.9669C75.2632 23.9669 75.9768 24.1762 76.4936 24.5947C77.0104 24.9887 77.2688 25.5549 77.2688 26.2935C77.2688 27.0074 76.9366 27.6968 76.2721 28.3615C75.6076 29.0262 74.697 29.5679 73.5404 29.9864C72.3839 30.4049 71.1163 30.6142 69.7382 30.6142ZM73.5773 19.2769V18.5753C73.5773 17.5413 73.2204 16.7042 72.5068 16.0641C71.7933 15.424 70.8704 15.1039 69.7382 15.1039C68.6061 15.1039 67.6832 15.424 66.9697 16.0641C66.2805 16.6796 65.936 17.5166 65.936 18.5753V19.2769H73.5773ZM81.3017 14.6608C81.3017 13.7498 81.6586 12.999 82.3722 12.4081C83.0858 11.7926 84.1441 11.4849 85.5468 11.4849V13.479C85.1286 14.0453 84.8946 14.3776 84.8455 14.4761L84.9931 14.6238C85.7805 13.5898 86.6421 12.8143 87.5771 12.2973C88.5369 11.7557 89.7182 11.4849 91.1209 11.4849C92.4746 11.4849 93.668 11.768 94.7016 12.3342C95.76 12.8759 96.5843 13.6514 97.1749 14.6608C97.7655 15.6702 98.0608 16.8273 98.0608 18.1321V23.9669C98.0608 25.2964 97.7286 26.4658 97.0641 27.4752C96.4244 28.4846 95.5385 29.2601 94.4063 29.8017C93.2741 30.3434 91.9947 30.6142 90.5672 30.6142C89.6565 30.6142 88.7093 30.4295 87.7248 30.0602C86.765 29.6663 85.9529 29.137 85.2884 28.4723L85.1408 28.6569C85.3132 28.9031 85.5838 29.1616 85.9529 29.4325V34.898C85.9529 36.966 84.4025 38 81.3017 38V14.6608ZM89.6813 26.6258C90.8873 26.6258 91.8223 26.3673 92.4868 25.8503C93.1512 25.3333 93.4834 24.607 93.4834 23.6715V18.4276C93.4834 17.4674 93.1512 16.7411 92.4868 16.2487C91.847 15.7317 90.9116 15.4732 89.6813 15.4732C88.5738 15.4732 87.6631 15.744 86.9496 16.2857C86.236 16.8027 85.8791 17.4551 85.8791 18.2429V23.8561C85.8791 24.6194 86.2235 25.2718 86.9127 25.8134C87.6262 26.355 88.5491 26.6258 89.6813 26.6258ZM107.869 30.6142C106.614 30.6142 105.458 30.368 104.399 29.8756C103.366 29.3832 102.529 28.6816 101.889 27.7706C101.274 26.8351 100.966 25.7272 100.966 24.447C100.966 23.1668 101.299 22.0589 101.963 21.1234C102.628 20.1632 103.526 19.4369 104.658 18.9446C105.814 18.4276 107.082 18.169 108.46 18.169C109.592 18.169 110.601 18.3537 111.487 18.723C112.398 19.0676 113.234 19.597 113.997 20.3109L114.182 20.1263C113.96 19.9047 113.579 19.5724 113.037 19.1292V18.3906C113.037 17.3812 112.68 16.5811 111.967 15.9902C111.253 15.3994 110.257 15.1039 108.977 15.1039C106.688 15.1039 105.002 15.941 103.92 17.6151C103.378 17.4428 102.923 17.172 102.554 16.8027C102.185 16.4087 102 15.9902 102 15.5471C102 14.8085 102.332 14.1315 102.997 13.516C103.661 12.9005 104.559 12.4081 105.691 12.0388C106.824 11.6695 108.054 11.4849 109.383 11.4849C111.992 11.4849 114.009 12.1004 115.437 13.3313C116.864 14.5377 117.578 16.1872 117.578 18.2798V27.5121C117.578 28.5954 117.233 29.3832 116.544 29.8756C115.855 30.368 114.772 30.6142 113.296 30.6142V29.1001C113.714 28.6816 113.997 28.3738 114.145 28.1769L113.997 27.9922C113.185 28.8539 112.311 29.5063 111.376 29.9495C110.466 30.3926 109.297 30.6142 107.869 30.6142ZM109.051 27.2536C110.33 27.2536 111.327 27.0074 112.041 26.515C112.754 26.0227 113.111 25.321 113.111 24.4101C113.111 23.5238 112.742 22.8221 112.004 22.3051C111.29 21.7881 110.318 21.5296 109.088 21.5296C107.955 21.5296 107.057 21.7881 106.393 22.3051C105.753 22.7975 105.433 23.4991 105.433 24.4101C105.433 25.3456 105.753 26.0596 106.393 26.552C107.033 27.0198 107.918 27.2536 109.051 27.2536ZM121.713 15.0301C121.713 13.8976 122.07 13.0236 122.784 12.4081C123.522 11.7926 124.629 11.4849 126.106 11.4849V13.7006C125.811 14.0453 125.515 14.4392 125.22 14.8823L125.441 15.0301C126.18 13.9222 127.127 13.0605 128.284 12.445C129.44 11.8049 130.72 11.4849 132.123 11.4849C133.378 11.4849 134.485 11.768 135.445 12.3342C136.405 12.9005 137.143 13.676 137.66 14.6608C138.201 15.6456 138.472 16.7534 138.472 17.9844V27.8076C138.472 28.7924 138.09 29.5063 137.328 29.9495C136.565 30.3926 135.408 30.6142 133.858 30.6142V18.6491C133.858 17.7136 133.575 16.9504 133.009 16.3595C132.467 15.7687 131.667 15.4732 130.609 15.4732C129.354 15.4732 128.321 15.8671 127.509 16.655C126.696 17.4182 126.29 18.3783 126.29 19.5354V27.8076C126.29 28.7924 125.921 29.5063 125.183 29.9495C124.445 30.3926 123.288 30.6142 121.713 30.6142V15.0301ZM150.633 30.6142C149.107 30.6142 147.716 30.3188 146.461 29.7279C145.206 29.1124 144.209 28.2876 143.471 27.2536C142.733 26.195 142.364 25.0132 142.364 23.7084V18.7968C142.364 17.4182 142.745 16.1749 143.508 15.067C144.271 13.9591 145.28 13.0851 146.535 12.445C147.815 11.8049 149.193 11.4849 150.669 11.4849C152.122 11.4849 153.451 11.7926 154.656 12.4081C155.887 12.999 156.859 13.836 157.572 14.9193C158.286 15.9779 158.643 17.1966 158.643 18.5753V20.6433C158.643 21.1849 158.434 21.6404 158.015 22.0097C157.622 22.379 157.117 22.5636 156.502 22.5636H146.83V23.3761C146.83 24.4347 147.15 25.2964 147.79 25.9611C148.43 26.6258 149.39 26.9582 150.669 26.9582C151.9 26.9582 152.81 26.6874 153.401 26.1458C154.016 25.6041 154.324 24.9025 154.324 24.0408C154.767 23.9916 155.075 23.9669 155.247 23.9669C156.158 23.9669 156.871 24.1762 157.388 24.5947C157.905 24.9887 158.163 25.5549 158.163 26.2935C158.163 27.0074 157.831 27.6968 157.166 28.3615C156.502 29.0262 155.592 29.5679 154.435 29.9864C153.278 30.4049 152.011 30.6142 150.633 30.6142ZM154.472 19.2769V18.5753C154.472 17.5413 154.115 16.7042 153.401 16.0641C152.688 15.424 151.765 15.1039 150.633 15.1039C149.501 15.1039 148.578 15.424 147.864 16.0641C147.175 16.6796 146.83 17.5166 146.83 18.5753V19.2769H154.472Z" fill="#6B53AE"/>
<g clip-path="url(#clip0_6994_90297)">
<path fill-rule="evenodd" clip-rule="evenodd" d="M2.27875 9.57909C0.826344 12.2173 0 15.249 0 18.4738C0 28.6715 8.26359 36.9383 18.4572 36.9383C28.6508 36.9383 36.9144 28.6715 36.9144 18.4738C36.9144 8.80952 29.4928 0.879369 20.0401 0.0761719L2.27875 9.57909ZM18.4572 30.8942C11.6004 30.8942 6.04175 25.3334 6.04175 18.4738C6.04175 11.6142 11.6004 6.05338 18.4572 6.05338C25.3141 6.05338 30.8727 11.6142 30.8727 18.4738C30.8727 25.3334 25.3141 30.8942 18.4572 30.8942Z" fill="#6B53AE"/>
<g filter="url(#filter0_d_6994_90297)">
<path fill-rule="evenodd" clip-rule="evenodd" d="M8.42055 10.7897C5.16274 11.0263 3.04288 9.10518 1.90039 10.3468C2.10869 9.60571 2.33605 9.45752 3.03757 9.09133C3.03757 9.09133 18.2506 0.569079 19.1884 0.222504C20.1261 -0.124069 21.0779 0.261668 21.0208 0.187212C21.018 0.189128 19.7865 0.115698 18.922 3.38744C17.6617 8.15639 10.9526 10.7359 8.4201 10.7897L8.42055 10.7897Z" fill="#EC8B5E"/>
</g>
</g>
<defs>
<filter id="filter0_d_6994_90297" x="0.900391" y="0.0756836" width="21.123" height="12.7344" filterUnits="userSpaceOnUse" color-interpolation-filters="sRGB">
<feFlood flood-opacity="0" result="BackgroundImageFix"/>
<feColorMatrix in="SourceAlpha" type="matrix" values="0 0 0 0 0 0 0 0 0 0 0 0 0 0 0 0 0 0 127 0" result="hardAlpha"/>
<feOffset dy="1"/>
<feGaussianBlur stdDeviation="0.5"/>
<feComposite in2="hardAlpha" operator="out"/>
<feColorMatrix type="matrix" values="0 0 0 0 0 0 0 0 0 0 0 0 0 0 0 0 0 0 0.1 0"/>
<feBlend mode="normal" in2="BackgroundImageFix" result="effect1_dropShadow_6994_90297"/>
<feBlend mode="normal" in="SourceGraphic" in2="effect1_dropShadow_6994_90297" result="shape"/>
</filter>
<clipPath id="clip0_6994_90297">
<rect width="36.9144" height="37.2985" fill="white"/>
</clipPath>
</defs>
</svg>
