<svg width="1440" height="353" viewBox="0 0 1440 353" fill="none" xmlns="http://www.w3.org/2000/svg">
<rect width="1439.43" height="352.556" fill="#3F355D"/>
<mask id="mask0_108_9337" style="mask-type:alpha" maskUnits="userSpaceOnUse" x="0" y="0" width="1440" height="353">
<rect width="1439.43" height="352.556" fill="#4A3AFF"/>
</mask>
<g mask="url(#mask0_108_9337)">
<ellipse cx="1125.22" cy="350.623" rx="89.0162" ry="107.13" transform="rotate(90 1125.22 350.623)" fill="#312B42"/>
<ellipse cx="1342.84" cy="170.17" rx="89.5121" ry="107.726" transform="rotate(90 1342.84 170.17)" fill="#312B42"/>
<path d="M1018.09 -8.85435C1018.09 2.90054 1020.87 14.5403 1026.29 25.4004C1031.7 36.2605 1039.64 46.1283 1049.64 54.4402C1059.64 62.7522 1071.52 69.3456 1084.59 73.844C1097.66 78.3424 1111.67 80.6577 1125.81 80.6577C1139.96 80.6577 1153.97 78.3424 1167.04 73.844C1180.11 69.3456 1191.98 62.7522 1201.99 54.4402C1211.99 46.1282 1219.93 36.2605 1225.34 25.4004C1230.75 14.5403 1233.54 2.90051 1233.54 -8.85439L1125.81 -8.85436L1018.09 -8.85435Z" fill="#312B42"/>
<path d="M909.843 259.84C924.045 259.84 938.108 257.516 951.228 253C964.349 248.484 976.271 241.865 986.314 233.521C996.356 225.176 1004.32 215.27 1009.76 204.367C1015.19 193.465 1017.99 181.78 1017.99 169.979C1017.99 158.178 1015.19 146.493 1009.76 135.59C1004.32 124.688 996.356 114.782 986.314 106.437C976.271 98.0928 964.349 91.4736 951.228 86.9577C938.107 82.4417 924.044 80.1174 909.842 80.1174L909.843 169.979L909.843 259.84Z" fill="#312B42"/>
<rect x="1234.31" y="80.1731" width="179.663" height="216.224" transform="rotate(90 1234.31 80.1731)" fill="#292634"/>
<path d="M1450.54 259.837L1335.34 352.932L1234.31 439.5L1234.31 259.837L1450.54 259.837Z" fill="#292634"/>
<path d="M1234.31 80.1731L1349.5 -12.9219L1450.53 -99.4897L1450.53 80.1731L1234.31 80.1731Z" fill="#292634"/>
<path d="M426.107 178.346L216.448 352.556L216.448 178.346L426.107 178.346Z" fill="#312B42"/>
<rect x="216.396" y="-1.31689" width="179.663" height="216.224" transform="rotate(90 216.396 -1.31689)" fill="#292634"/>
</g>
</svg>
