<svg width="524" height="383" viewBox="0 0 524 383" fill="none" xmlns="http://www.w3.org/2000/svg">
<g clip-path="url(#clip0_247_43417)">
<path d="M0 4C0 1.79086 1.79086 0 4 0H520C522.209 0 524 1.79086 524 4V379C524 381.209 522.209 383 520 383H3.99999C1.79085 383 0 381.209 0 379V4Z" fill="url(#paint0_radial_247_43417)"/>
<g opacity="0.8">
<path d="M354.862 43.4054H128.803C125.307 43.4054 122.473 46.2393 122.473 49.7351V334.57C122.473 338.066 125.307 340.9 128.803 340.9H354.862C358.358 340.9 361.192 338.066 361.192 334.57V49.7351C361.192 46.2393 358.358 43.4054 354.862 43.4054Z" fill="#FCFCFD" fill-opacity="0.1" stroke="white" stroke-opacity="0.2" stroke-width="2"/>
<g filter="url(#filter0_d_247_43417)">
<path d="M241.352 172.751L241.733 172.232L241.136 171.991L175.368 145.481C180.995 131.745 190.74 120.085 203.27 112.109C215.939 104.045 230.817 100.154 245.814 100.982C260.809 101.812 275.168 107.32 286.87 116.733C298.573 126.146 307.032 138.99 311.057 153.458C315.083 167.927 314.471 183.295 309.31 197.398C304.15 211.502 294.698 223.634 282.284 232.089C269.872 240.542 255.121 244.894 240.107 244.53C225.257 244.171 210.889 239.217 198.976 230.357L241.352 172.751Z" fill="#FF922D" stroke="#746992"/>
<path d="M241.065 172.929L199.212 230.534C186.343 221.048 177.002 207.533 172.678 192.131L172.196 192.266L172.678 192.131C168.352 176.728 169.294 160.329 175.343 145.529L241.065 172.929Z" fill="#B54926" stroke="#746992"/>
</g>
<g filter="url(#filter1_d_247_43417)">
<path d="M267.352 133.829H41.2925C37.2973 133.829 34.0586 137.068 34.0586 141.063V173.616C34.0586 177.611 37.2973 180.849 41.2925 180.849H267.352C271.347 180.849 274.586 177.611 274.586 173.616V141.063C274.586 137.068 271.347 133.829 267.352 133.829Z" fill="#5B556A"/>
<g filter="url(#filter2_d_247_43417)">
<path d="M205.752 273.081H31.2339C27.2387 273.081 24 276.32 24 280.315V312.868C24 316.863 27.2387 320.102 31.2339 320.102H205.752C209.747 320.102 212.986 316.863 212.986 312.868V280.315C212.986 276.32 209.747 273.081 205.752 273.081Z" fill="#5B556A"/>
<path d="M205.747 273.986H31.2288C27.7331 273.986 24.8992 276.82 24.8992 280.316V312.868C24.8992 316.364 27.7331 319.198 31.2288 319.198H205.747C209.242 319.198 212.076 316.364 212.076 312.868V280.316C212.076 276.82 209.242 273.986 205.747 273.986Z" fill="#5B556A" stroke="white" stroke-opacity="0.3" stroke-width="2"/>
</g>
<path d="M68.6593 290.262H56V302.921H68.6593V290.262Z" fill="#923F24"/>
</g>
<path d="M267.347 134.734H41.2874C37.7917 134.734 34.9578 137.568 34.9578 141.064V173.616C34.9578 177.112 37.7917 179.946 41.2874 179.946H267.347C270.843 179.946 273.676 177.112 273.676 173.616V141.064C273.676 137.568 270.843 134.734 267.347 134.734Z" fill="#5B556A" stroke="white" stroke-opacity="0.3" stroke-width="2"/>
<path d="M117.952 157.352C118.368 157.352 118.733 157.299 119.048 157.192C119.368 157.085 119.632 156.936 119.84 156.744C120.053 156.547 120.213 156.309 120.32 156.032C120.427 155.755 120.48 155.445 120.48 155.104C120.48 154.768 120.427 154.467 120.32 154.2C120.219 153.933 120.064 153.707 119.856 153.52C119.648 153.333 119.384 153.192 119.064 153.096C118.749 152.995 118.379 152.944 117.952 152.944H116.24V157.352H117.952ZM117.952 151.48C118.704 151.48 119.355 151.568 119.904 151.744C120.459 151.92 120.915 152.168 121.272 152.488C121.635 152.803 121.904 153.184 122.08 153.632C122.256 154.075 122.344 154.565 122.344 155.104C122.344 155.653 122.251 156.157 122.064 156.616C121.877 157.069 121.6 157.461 121.232 157.792C120.864 158.117 120.405 158.373 119.856 158.56C119.312 158.741 118.677 158.832 117.952 158.832H116.24V163H114.368V151.48H117.952ZM125.297 156.352C125.553 155.835 125.862 155.429 126.225 155.136C126.588 154.837 127.022 154.688 127.529 154.688C127.705 154.688 127.87 154.709 128.025 154.752C128.18 154.789 128.318 154.848 128.441 154.928L128.321 156.224C128.3 156.315 128.265 156.379 128.217 156.416C128.174 156.448 128.116 156.464 128.041 156.464C127.961 156.464 127.846 156.451 127.697 156.424C127.548 156.392 127.39 156.376 127.225 156.376C126.985 156.376 126.772 156.411 126.585 156.48C126.404 156.549 126.238 156.651 126.089 156.784C125.945 156.917 125.817 157.08 125.705 157.272C125.593 157.464 125.489 157.683 125.393 157.928V163H123.673V154.84H124.673C124.854 154.84 124.98 154.875 125.049 154.944C125.118 155.008 125.166 155.123 125.193 155.288L125.297 156.352ZM132.826 154.712C133.429 154.712 133.973 154.811 134.458 155.008C134.949 155.205 135.365 155.485 135.706 155.848C136.053 156.211 136.319 156.651 136.506 157.168C136.693 157.685 136.786 158.267 136.786 158.912C136.786 159.557 136.693 160.139 136.506 160.656C136.319 161.173 136.053 161.616 135.706 161.984C135.365 162.347 134.949 162.627 134.458 162.824C133.973 163.021 133.429 163.12 132.826 163.12C132.218 163.12 131.669 163.021 131.178 162.824C130.693 162.627 130.277 162.347 129.93 161.984C129.583 161.616 129.317 161.173 129.13 160.656C128.943 160.139 128.85 159.557 128.85 158.912C128.85 158.267 128.943 157.685 129.13 157.168C129.317 156.651 129.583 156.211 129.93 155.848C130.277 155.485 130.693 155.205 131.178 155.008C131.669 154.811 132.218 154.712 132.826 154.712ZM132.826 161.776C133.562 161.776 134.109 161.531 134.466 161.04C134.829 160.544 135.01 159.837 135.01 158.92C135.01 158.003 134.829 157.296 134.466 156.8C134.109 156.299 133.562 156.048 132.826 156.048C132.079 156.048 131.525 156.299 131.162 156.8C130.799 157.296 130.618 158.003 130.618 158.92C130.618 159.837 130.799 160.544 131.162 161.04C131.525 161.531 132.079 161.776 132.826 161.776ZM140.231 154.84V163.424C140.231 163.765 140.185 164.085 140.095 164.384C140.004 164.688 139.86 164.952 139.663 165.176C139.465 165.4 139.209 165.576 138.895 165.704C138.585 165.832 138.209 165.896 137.767 165.896C137.58 165.896 137.412 165.883 137.263 165.856C137.113 165.829 136.961 165.792 136.807 165.744L136.871 164.808C136.887 164.701 136.932 164.64 137.007 164.624C137.076 164.608 137.212 164.6 137.415 164.6C137.82 164.6 138.103 164.509 138.263 164.328C138.428 164.152 138.511 163.851 138.511 163.424V154.84H140.231ZM140.511 152.376C140.511 152.531 140.479 152.677 140.415 152.816C140.356 152.955 140.273 153.077 140.167 153.184C140.06 153.285 139.937 153.368 139.799 153.432C139.66 153.491 139.511 153.52 139.351 153.52C139.196 153.52 139.049 153.491 138.911 153.432C138.777 153.368 138.657 153.285 138.551 153.184C138.449 153.077 138.369 152.955 138.311 152.816C138.252 152.677 138.223 152.531 138.223 152.376C138.223 152.216 138.252 152.067 138.311 151.928C138.369 151.789 138.449 151.669 138.551 151.568C138.657 151.461 138.777 151.379 138.911 151.32C139.049 151.256 139.196 151.224 139.351 151.224C139.511 151.224 139.66 151.256 139.799 151.32C139.937 151.379 140.06 151.461 140.167 151.568C140.273 151.669 140.356 151.789 140.415 151.928C140.479 152.067 140.511 152.216 140.511 152.376ZM147.744 158C147.744 157.712 147.701 157.445 147.616 157.2C147.536 156.949 147.416 156.733 147.256 156.552C147.096 156.365 146.896 156.221 146.656 156.12C146.421 156.013 146.149 155.96 145.84 155.96C145.216 155.96 144.725 156.139 144.368 156.496C144.01 156.853 143.784 157.355 143.688 158H147.744ZM143.64 159.056C143.661 159.52 143.733 159.923 143.856 160.264C143.978 160.6 144.141 160.88 144.344 161.104C144.552 161.328 144.797 161.496 145.08 161.608C145.368 161.715 145.688 161.768 146.04 161.768C146.376 161.768 146.666 161.731 146.912 161.656C147.157 161.576 147.37 161.491 147.552 161.4C147.733 161.304 147.888 161.219 148.016 161.144C148.144 161.064 148.261 161.024 148.368 161.024C148.506 161.024 148.613 161.077 148.688 161.184L149.176 161.816C148.973 162.056 148.744 162.259 148.488 162.424C148.232 162.589 147.96 162.725 147.672 162.832C147.384 162.933 147.088 163.005 146.784 163.048C146.48 163.096 146.184 163.12 145.896 163.12C145.33 163.12 144.805 163.027 144.32 162.84C143.84 162.648 143.421 162.368 143.064 162C142.712 161.632 142.434 161.176 142.232 160.632C142.034 160.088 141.936 159.461 141.936 158.752C141.936 158.187 142.024 157.659 142.2 157.168C142.381 156.677 142.637 156.251 142.968 155.888C143.304 155.525 143.709 155.24 144.184 155.032C144.664 154.819 145.205 154.712 145.808 154.712C146.309 154.712 146.773 154.795 147.2 154.96C147.626 155.12 147.994 155.357 148.304 155.672C148.613 155.987 148.853 156.373 149.024 156.832C149.2 157.285 149.288 157.803 149.288 158.384C149.288 158.651 149.258 158.829 149.2 158.92C149.141 159.011 149.034 159.056 148.88 159.056H143.64ZM156.66 156.44C156.606 156.509 156.556 156.563 156.508 156.6C156.46 156.637 156.39 156.656 156.3 156.656C156.209 156.656 156.113 156.624 156.012 156.56C155.916 156.496 155.798 156.427 155.66 156.352C155.526 156.272 155.364 156.2 155.172 156.136C154.98 156.072 154.74 156.04 154.452 156.04C154.078 156.04 153.75 156.107 153.468 156.24C153.19 156.373 152.956 156.565 152.764 156.816C152.577 157.061 152.436 157.363 152.34 157.72C152.249 158.072 152.204 158.469 152.204 158.912C152.204 159.371 152.254 159.779 152.356 160.136C152.457 160.493 152.601 160.795 152.788 161.04C152.98 161.285 153.209 161.472 153.476 161.6C153.748 161.728 154.052 161.792 154.388 161.792C154.718 161.792 154.988 161.752 155.196 161.672C155.404 161.592 155.577 161.504 155.716 161.408C155.854 161.312 155.972 161.224 156.068 161.144C156.169 161.064 156.276 161.024 156.388 161.024C156.526 161.024 156.633 161.077 156.708 161.184L157.196 161.816C156.998 162.056 156.78 162.259 156.54 162.424C156.3 162.589 156.046 162.725 155.78 162.832C155.513 162.933 155.236 163.005 154.948 163.048C154.66 163.096 154.369 163.12 154.076 163.12C153.569 163.12 153.094 163.027 152.652 162.84C152.214 162.648 151.83 162.373 151.5 162.016C151.174 161.653 150.916 161.213 150.724 160.696C150.537 160.173 150.444 159.579 150.444 158.912C150.444 158.309 150.529 157.752 150.7 157.24C150.87 156.723 151.118 156.277 151.444 155.904C151.774 155.531 152.182 155.24 152.668 155.032C153.153 154.819 153.713 154.712 154.348 154.712C154.94 154.712 155.46 154.808 155.908 155C156.361 155.192 156.764 155.464 157.116 155.816L156.66 156.44ZM161.195 163.128C160.518 163.128 159.995 162.939 159.627 162.56C159.265 162.176 159.083 161.637 159.083 160.944V156.192H158.187C158.091 156.192 158.009 156.163 157.939 156.104C157.87 156.04 157.835 155.947 157.835 155.824V155.128L159.155 154.936L159.531 152.576C159.558 152.485 159.603 152.413 159.667 152.36C159.731 152.301 159.817 152.272 159.923 152.272H160.803V154.952H163.067V156.192H160.803V160.824C160.803 161.117 160.875 161.341 161.019 161.496C161.163 161.651 161.355 161.728 161.595 161.728C161.729 161.728 161.843 161.712 161.939 161.68C162.035 161.643 162.118 161.605 162.187 161.568C162.257 161.525 162.315 161.488 162.363 161.456C162.417 161.419 162.467 161.4 162.515 161.4C162.611 161.4 162.689 161.453 162.747 161.56L163.259 162.4C162.993 162.635 162.678 162.816 162.315 162.944C161.953 163.067 161.579 163.128 161.195 163.128ZM168.311 157.456H172.367V158.912H168.311V157.456ZM185.169 161.376C185.356 161.376 185.502 161.432 185.609 161.544C185.716 161.651 185.769 161.789 185.769 161.96V163H177.977V162.416C177.977 162.299 178.001 162.176 178.049 162.048C178.097 161.92 178.174 161.803 178.281 161.696L181.865 158.104C182.169 157.8 182.438 157.509 182.673 157.232C182.913 156.955 183.116 156.677 183.281 156.4C183.452 156.123 183.58 155.843 183.665 155.56C183.756 155.272 183.801 154.971 183.801 154.656C183.801 154.352 183.753 154.085 183.657 153.856C183.566 153.621 183.438 153.429 183.273 153.28C183.113 153.125 182.918 153.011 182.689 152.936C182.465 152.856 182.217 152.816 181.945 152.816C181.684 152.816 181.441 152.853 181.217 152.928C180.998 153.003 180.801 153.107 180.625 153.24C180.454 153.373 180.31 153.533 180.193 153.72C180.081 153.901 179.998 154.101 179.945 154.32C179.865 154.539 179.761 154.685 179.633 154.76C179.51 154.835 179.329 154.851 179.089 154.808L178.185 154.648C178.265 154.104 178.414 153.627 178.633 153.216C178.857 152.805 179.137 152.464 179.473 152.192C179.809 151.915 180.193 151.707 180.625 151.568C181.062 151.424 181.534 151.352 182.041 151.352C182.553 151.352 183.022 151.429 183.449 151.584C183.881 151.733 184.252 151.949 184.561 152.232C184.876 152.509 185.121 152.848 185.297 153.248C185.473 153.648 185.561 154.099 185.561 154.6C185.561 155.027 185.497 155.421 185.369 155.784C185.246 156.147 185.078 156.493 184.865 156.824C184.652 157.155 184.401 157.477 184.113 157.792C183.83 158.101 183.532 158.416 183.217 158.736L180.433 161.584C180.662 161.52 180.892 161.469 181.121 161.432C181.356 161.395 181.577 161.376 181.785 161.376H185.169ZM195.418 157.24C195.418 158.248 195.309 159.12 195.09 159.856C194.877 160.592 194.581 161.203 194.202 161.688C193.823 162.173 193.378 162.533 192.866 162.768C192.354 163.003 191.802 163.12 191.21 163.12C190.618 163.12 190.066 163.003 189.554 162.768C189.042 162.533 188.597 162.173 188.218 161.688C187.845 161.203 187.551 160.592 187.338 159.856C187.125 159.12 187.018 158.248 187.018 157.24C187.018 156.232 187.125 155.36 187.338 154.624C187.551 153.883 187.845 153.272 188.218 152.792C188.597 152.307 189.042 151.947 189.554 151.712C190.066 151.472 190.618 151.352 191.21 151.352C191.802 151.352 192.354 151.472 192.866 151.712C193.378 151.947 193.823 152.307 194.202 152.792C194.581 153.272 194.877 153.883 195.09 154.624C195.309 155.36 195.418 156.232 195.418 157.24ZM193.642 157.24C193.642 156.387 193.573 155.677 193.434 155.112C193.301 154.541 193.122 154.085 192.898 153.744C192.674 153.403 192.415 153.16 192.122 153.016C191.829 152.872 191.525 152.8 191.21 152.8C190.89 152.8 190.583 152.872 190.29 153.016C190.002 153.16 189.746 153.403 189.522 153.744C189.298 154.085 189.119 154.541 188.986 155.112C188.853 155.677 188.786 156.387 188.786 157.24C188.786 158.093 188.853 158.805 188.986 159.376C189.119 159.941 189.298 160.395 189.522 160.736C189.746 161.077 190.002 161.32 190.29 161.464C190.583 161.608 190.89 161.68 191.21 161.68C191.525 161.68 191.829 161.608 192.122 161.464C192.415 161.32 192.674 161.077 192.898 160.736C193.122 160.395 193.301 159.941 193.434 159.376C193.573 158.805 193.642 158.093 193.642 157.24ZM201.731 154.264C201.731 154.707 201.659 155.104 201.515 155.456C201.377 155.808 201.187 156.109 200.947 156.36C200.707 156.605 200.43 156.795 200.115 156.928C199.801 157.056 199.47 157.12 199.123 157.12C198.75 157.12 198.403 157.056 198.083 156.928C197.769 156.795 197.494 156.605 197.259 156.36C197.03 156.109 196.849 155.808 196.715 155.456C196.582 155.104 196.515 154.707 196.515 154.264C196.515 153.811 196.582 153.405 196.715 153.048C196.849 152.685 197.03 152.381 197.259 152.136C197.494 151.885 197.769 151.693 198.083 151.56C198.403 151.427 198.75 151.36 199.123 151.36C199.497 151.36 199.841 151.427 200.155 151.56C200.475 151.693 200.75 151.885 200.979 152.136C201.214 152.381 201.398 152.685 201.531 153.048C201.665 153.405 201.731 153.811 201.731 154.264ZM200.403 154.264C200.403 153.939 200.369 153.664 200.299 153.44C200.235 153.211 200.145 153.027 200.027 152.888C199.915 152.744 199.779 152.643 199.619 152.584C199.465 152.52 199.299 152.488 199.123 152.488C198.942 152.488 198.774 152.52 198.619 152.584C198.465 152.643 198.331 152.744 198.219 152.888C198.107 153.027 198.019 153.211 197.955 153.44C197.891 153.664 197.859 153.939 197.859 154.264C197.859 154.584 197.891 154.853 197.955 155.072C198.019 155.291 198.107 155.469 198.219 155.608C198.331 155.741 198.465 155.837 198.619 155.896C198.774 155.955 198.942 155.984 199.123 155.984C199.299 155.984 199.465 155.955 199.619 155.896C199.779 155.837 199.915 155.741 200.027 155.608C200.145 155.469 200.235 155.291 200.299 155.072C200.369 154.853 200.403 154.584 200.403 154.264ZM205.683 151.76C205.742 151.685 205.811 151.621 205.891 151.568C205.977 151.509 206.094 151.48 206.243 151.48H207.483L198.995 162.736C198.937 162.811 198.865 162.875 198.779 162.928C198.694 162.976 198.59 163 198.467 163H197.187L205.683 151.76ZM208.179 160.288C208.179 160.731 208.107 161.128 207.963 161.48C207.819 161.832 207.627 162.131 207.387 162.376C207.147 162.621 206.87 162.811 206.555 162.944C206.241 163.072 205.91 163.136 205.563 163.136C205.19 163.136 204.843 163.072 204.523 162.944C204.209 162.811 203.934 162.621 203.699 162.376C203.47 162.131 203.289 161.832 203.155 161.48C203.027 161.128 202.963 160.731 202.963 160.288C202.963 159.835 203.027 159.429 203.155 159.072C203.289 158.709 203.47 158.403 203.699 158.152C203.934 157.901 204.209 157.712 204.523 157.584C204.843 157.451 205.19 157.384 205.563 157.384C205.937 157.384 206.283 157.451 206.603 157.584C206.923 157.712 207.198 157.901 207.427 158.152C207.662 158.403 207.846 158.709 207.979 159.072C208.113 159.429 208.179 159.835 208.179 160.288ZM206.851 160.288C206.851 159.963 206.817 159.688 206.747 159.464C206.683 159.235 206.593 159.051 206.475 158.912C206.358 158.768 206.219 158.667 206.059 158.608C205.905 158.544 205.739 158.512 205.563 158.512C205.387 158.512 205.222 158.544 205.067 158.608C204.913 158.667 204.777 158.768 204.659 158.912C204.547 159.051 204.459 159.235 204.395 159.464C204.331 159.688 204.299 159.963 204.299 160.288C204.299 160.608 204.331 160.877 204.395 161.096C204.459 161.315 204.547 161.493 204.659 161.632C204.777 161.765 204.913 161.861 205.067 161.92C205.222 161.979 205.387 162.008 205.563 162.008C205.739 162.008 205.905 161.979 206.059 161.92C206.219 161.861 206.358 161.765 206.475 161.632C206.593 161.493 206.683 161.315 206.747 161.096C206.817 160.877 206.851 160.608 206.851 160.288Z" fill="#B2B1B6"/>
<path d="M104.59 151.011H91.9304V163.67H104.59V151.011Z" fill="#D07A2A"/>
<path d="M149.601 76.8631C144.607 76.8631 140.559 72.8148 140.559 67.8207C140.559 63.7715 143.22 60.3445 146.888 59.1925V61.1131C145.334 61.7442 144.047 62.8962 143.248 64.371C142.448 65.8467 142.187 67.553 142.507 69.2006C142.828 70.8472 143.711 72.331 145.005 73.3989C146.299 74.4668 147.924 75.0519 149.601 75.0546C151.042 75.0546 152.45 74.6242 153.646 73.8185C154.84 73.0128 155.768 71.869 156.309 70.5334H158.229C157.077 74.2019 153.65 76.8631 149.601 76.8631ZM158.598 68.7249H148.697V58.8235C148.994 58.7937 149.296 58.7783 149.601 58.7783C154.595 58.7783 158.643 62.8266 158.643 67.8207C158.643 68.1254 158.628 68.4274 158.598 68.7249ZM150.505 60.6429V66.9165H156.779C156.577 65.3232 155.852 63.8411 154.716 62.7054C153.581 61.5697 152.098 60.8445 150.505 60.6429Z" fill="white"/>
<path d="M654.169 43.4054H428.109C424.614 43.4054 421.78 46.2393 421.78 49.7351V334.57C421.78 338.066 424.614 340.9 428.109 340.9H654.169C657.665 340.9 660.498 338.066 660.498 334.57V49.7351C660.498 46.2393 657.665 43.4054 654.169 43.4054Z" fill="#FCFCFD" fill-opacity="0.1" stroke="white" stroke-opacity="0.2" stroke-width="2"/>
<g filter="url(#filter3_d_247_43417)">
<path d="M605.299 140.41L605.746 140.185L605.299 140.41C611.284 152.297 613.848 165.612 612.708 178.871C611.566 192.13 606.765 204.811 598.838 215.502C590.912 226.191 580.172 234.469 567.816 239.412C555.46 244.355 541.974 245.769 528.862 243.496L528.776 243.988L528.862 243.496C515.749 241.223 503.526 235.352 493.555 226.538C483.709 217.835 476.441 206.6 472.538 194.058L541.278 173.191L541.633 173.083V172.713V100.875C554.768 100.967 567.629 104.658 578.818 111.552C590.148 118.533 599.315 128.523 605.299 140.41Z" fill="#E72EEB" stroke="#665A85"/>
<path d="M541.679 173.084L474.172 197.169C469.231 183.01 468.844 167.656 473.071 153.26L472.592 153.119L473.071 153.26C477.346 138.704 486.118 125.874 498.132 116.61C510.147 107.346 524.785 102.123 539.949 101.691L539.935 101.191L539.949 101.691C554.948 101.262 569.698 105.541 582.136 113.919L541.679 173.084Z" fill="#642BC0" stroke="#665A85"/>
</g>
<path d="M448.912 76.8631C443.918 76.8631 439.87 72.8148 439.87 67.8207C439.87 63.7715 442.531 60.3445 446.2 59.1925V61.1131C444.645 61.7442 443.359 62.8962 442.559 64.371C441.76 65.8467 441.499 67.553 441.819 69.2006C442.14 70.8472 443.022 72.331 444.316 73.3989C445.61 74.4668 447.235 75.0519 448.912 75.0546C450.354 75.0546 451.762 74.6242 452.957 73.8185C454.152 73.0128 455.079 71.869 455.62 70.5334H457.541C456.389 74.2019 452.962 76.8631 448.912 76.8631ZM457.91 68.7249H448.008V58.8235C448.306 58.7937 448.608 58.7783 448.912 58.7783C453.907 58.7783 457.955 62.8266 457.955 67.8207C457.955 68.1254 457.94 68.4274 457.91 68.7249ZM449.817 60.6429V66.9165H456.09C455.889 65.3232 455.163 63.8411 454.028 62.7054C452.892 61.5697 451.41 60.8445 449.817 60.6429Z" fill="white"/>
<g filter="url(#filter4_d_247_43417)">
<path d="M557.739 248.668H331.68C327.685 248.668 324.446 251.907 324.446 255.902V288.454C324.446 292.449 327.685 295.688 331.68 295.688H557.739C561.734 295.688 564.973 292.449 564.973 288.454V255.902C564.973 251.907 561.734 248.668 557.739 248.668Z" fill="#5B556A"/>
<path d="M557.734 249.572H331.674C328.179 249.572 325.345 252.406 325.345 255.902V288.454C325.345 291.95 328.179 294.784 331.674 294.784H557.734C561.23 294.784 564.063 291.95 564.063 288.454V255.902C564.063 252.406 561.23 249.572 557.734 249.572Z" fill="#5B556A" stroke="white" stroke-opacity="0.3" stroke-width="2"/>
</g>
<path d="M395.659 265.945H383V278.604H395.659V265.945Z" fill="#BE2CC1"/>
<path d="M413.704 275.432C413.806 275.432 413.894 275.472 413.968 275.552L414.712 276.36C414.243 276.925 413.667 277.363 412.984 277.672C412.302 277.976 411.486 278.128 410.536 278.128C409.694 278.128 408.931 277.984 408.248 277.696C407.571 277.403 406.992 276.997 406.512 276.48C406.032 275.957 405.662 275.336 405.4 274.616C405.144 273.896 405.016 273.104 405.016 272.24C405.016 271.376 405.152 270.584 405.424 269.864C405.702 269.139 406.088 268.517 406.584 268C407.086 267.477 407.683 267.072 408.376 266.784C409.075 266.496 409.843 266.352 410.68 266.352C411.512 266.352 412.246 266.488 412.88 266.76C413.52 267.027 414.075 267.384 414.544 267.832L413.928 268.704C413.886 268.763 413.835 268.813 413.776 268.856C413.718 268.899 413.638 268.92 413.536 268.92C413.43 268.92 413.307 268.872 413.168 268.776C413.035 268.675 412.862 268.565 412.648 268.448C412.44 268.325 412.176 268.216 411.856 268.12C411.542 268.019 411.147 267.968 410.672 267.968C410.123 267.968 409.619 268.064 409.16 268.256C408.702 268.448 408.307 268.728 407.976 269.096C407.646 269.464 407.387 269.912 407.2 270.44C407.019 270.968 406.928 271.568 406.928 272.24C406.928 272.917 407.024 273.523 407.216 274.056C407.408 274.584 407.672 275.032 408.008 275.4C408.344 275.763 408.739 276.04 409.192 276.232C409.646 276.424 410.134 276.52 410.656 276.52C410.976 276.52 411.262 276.504 411.512 276.472C411.768 276.435 412.003 276.379 412.216 276.304C412.43 276.224 412.63 276.125 412.816 276.008C413.008 275.891 413.198 275.747 413.384 275.576C413.491 275.48 413.598 275.432 413.704 275.432ZM419.366 269.712C419.968 269.712 420.512 269.811 420.998 270.008C421.488 270.205 421.904 270.485 422.246 270.848C422.592 271.211 422.859 271.651 423.046 272.168C423.232 272.685 423.326 273.267 423.326 273.912C423.326 274.557 423.232 275.139 423.046 275.656C422.859 276.173 422.592 276.616 422.246 276.984C421.904 277.347 421.488 277.627 420.998 277.824C420.512 278.021 419.968 278.12 419.366 278.12C418.758 278.12 418.208 278.021 417.718 277.824C417.232 277.627 416.816 277.347 416.47 276.984C416.123 276.616 415.856 276.173 415.67 275.656C415.483 275.139 415.39 274.557 415.39 273.912C415.39 273.267 415.483 272.685 415.67 272.168C415.856 271.651 416.123 271.211 416.47 270.848C416.816 270.485 417.232 270.205 417.718 270.008C418.208 269.811 418.758 269.712 419.366 269.712ZM419.366 276.776C420.102 276.776 420.648 276.531 421.006 276.04C421.368 275.544 421.55 274.837 421.55 273.92C421.55 273.003 421.368 272.296 421.006 271.8C420.648 271.299 420.102 271.048 419.366 271.048C418.619 271.048 418.064 271.299 417.702 271.8C417.339 272.296 417.158 273.003 417.158 273.92C417.158 274.837 417.339 275.544 417.702 276.04C418.064 276.531 418.619 276.776 419.366 276.776ZM431.858 269.84V278H430.818C430.589 278 430.442 277.891 430.378 277.672L430.25 276.912C430.08 277.093 429.898 277.259 429.706 277.408C429.52 277.557 429.32 277.685 429.106 277.792C428.893 277.899 428.664 277.981 428.418 278.04C428.178 278.099 427.92 278.128 427.642 278.128C427.194 278.128 426.8 278.053 426.458 277.904C426.117 277.755 425.829 277.544 425.594 277.272C425.365 277 425.192 276.675 425.074 276.296C424.957 275.912 424.898 275.491 424.898 275.032V269.84H426.618V275.032C426.618 275.581 426.744 276.008 426.994 276.312C427.25 276.616 427.637 276.768 428.154 276.768C428.533 276.768 428.885 276.683 429.21 276.512C429.541 276.336 429.85 276.096 430.138 275.792V269.84H431.858ZM435.555 270.92C435.731 270.739 435.912 270.576 436.099 270.432C436.291 270.283 436.494 270.155 436.707 270.048C436.92 269.941 437.147 269.859 437.387 269.8C437.627 269.741 437.888 269.712 438.171 269.712C438.619 269.712 439.011 269.787 439.347 269.936C439.688 270.085 439.974 270.296 440.203 270.568C440.438 270.84 440.614 271.168 440.731 271.552C440.848 271.931 440.907 272.349 440.907 272.808V278H439.195V272.808C439.195 272.259 439.067 271.832 438.811 271.528C438.56 271.224 438.176 271.072 437.659 271.072C437.275 271.072 436.918 271.16 436.587 271.336C436.262 271.512 435.955 271.752 435.667 272.056V278H433.947V269.84H434.987C435.222 269.84 435.371 269.949 435.435 270.168L435.555 270.92ZM445.422 278.128C444.745 278.128 444.222 277.939 443.854 277.56C443.492 277.176 443.31 276.637 443.31 275.944V271.192H442.414C442.318 271.192 442.236 271.163 442.166 271.104C442.097 271.04 442.062 270.947 442.062 270.824V270.128L443.382 269.936L443.758 267.576C443.785 267.485 443.83 267.413 443.894 267.36C443.958 267.301 444.044 267.272 444.15 267.272H445.03V269.952H447.294V271.192H445.03V275.824C445.03 276.117 445.102 276.341 445.246 276.496C445.39 276.651 445.582 276.728 445.822 276.728C445.956 276.728 446.07 276.712 446.166 276.68C446.262 276.643 446.345 276.605 446.414 276.568C446.484 276.525 446.542 276.488 446.59 276.456C446.644 276.419 446.694 276.4 446.742 276.4C446.838 276.4 446.916 276.453 446.974 276.56L447.486 277.4C447.22 277.635 446.905 277.816 446.542 277.944C446.18 278.067 445.806 278.128 445.422 278.128ZM450.274 271.352C450.53 270.835 450.839 270.429 451.202 270.136C451.565 269.837 451.999 269.688 452.506 269.688C452.682 269.688 452.847 269.709 453.002 269.752C453.157 269.789 453.295 269.848 453.418 269.928L453.298 271.224C453.277 271.315 453.242 271.379 453.194 271.416C453.151 271.448 453.093 271.464 453.018 271.464C452.938 271.464 452.823 271.451 452.674 271.424C452.525 271.392 452.367 271.376 452.202 271.376C451.962 271.376 451.749 271.411 451.562 271.48C451.381 271.549 451.215 271.651 451.066 271.784C450.922 271.917 450.794 272.08 450.682 272.272C450.57 272.464 450.466 272.683 450.37 272.928V278H448.65V269.84H449.65C449.831 269.84 449.957 269.875 450.026 269.944C450.095 270.008 450.143 270.123 450.17 270.288L450.274 271.352ZM461.796 269.84L457.3 280.32C457.242 280.443 457.17 280.539 457.084 280.608C457.004 280.677 456.879 280.712 456.708 280.712H455.436L456.94 277.448L453.612 269.84H455.108C455.252 269.84 455.362 269.875 455.436 269.944C455.516 270.008 455.575 270.085 455.612 270.176L457.556 274.808C457.604 274.941 457.647 275.075 457.684 275.208C457.727 275.336 457.767 275.469 457.804 275.608C457.847 275.469 457.89 275.333 457.932 275.2C457.975 275.067 458.023 274.933 458.076 274.8L459.94 270.176C459.978 270.08 460.039 270 460.124 269.936C460.215 269.872 460.314 269.84 460.42 269.84H461.796ZM466.413 272.456H470.469V273.912H466.413V272.456ZM481.167 273.744V269.536C481.167 269.2 481.191 268.832 481.239 268.432L477.367 273.744H481.167ZM484.255 273.744V274.736C484.255 274.832 484.223 274.915 484.159 274.984C484.1 275.053 484.01 275.088 483.887 275.088H482.663V278H481.167V275.088H476.183C476.06 275.088 475.954 275.053 475.863 274.984C475.778 274.909 475.722 274.819 475.695 274.712L475.519 273.832L481.047 266.472H482.663V273.744H484.255ZM493.52 272.24C493.52 273.248 493.411 274.12 493.192 274.856C492.979 275.592 492.683 276.203 492.304 276.688C491.926 277.173 491.48 277.533 490.968 277.768C490.456 278.003 489.904 278.12 489.312 278.12C488.72 278.12 488.168 278.003 487.656 277.768C487.144 277.533 486.699 277.173 486.32 276.688C485.947 276.203 485.654 275.592 485.44 274.856C485.227 274.12 485.12 273.248 485.12 272.24C485.12 271.232 485.227 270.36 485.44 269.624C485.654 268.883 485.947 268.272 486.32 267.792C486.699 267.307 487.144 266.947 487.656 266.712C488.168 266.472 488.72 266.352 489.312 266.352C489.904 266.352 490.456 266.472 490.968 266.712C491.48 266.947 491.926 267.307 492.304 267.792C492.683 268.272 492.979 268.883 493.192 269.624C493.411 270.36 493.52 271.232 493.52 272.24ZM491.744 272.24C491.744 271.387 491.675 270.677 491.536 270.112C491.403 269.541 491.224 269.085 491 268.744C490.776 268.403 490.518 268.16 490.224 268.016C489.931 267.872 489.627 267.8 489.312 267.8C488.992 267.8 488.686 267.872 488.392 268.016C488.104 268.16 487.848 268.403 487.624 268.744C487.4 269.085 487.222 269.541 487.088 270.112C486.955 270.677 486.888 271.387 486.888 272.24C486.888 273.093 486.955 273.805 487.088 274.376C487.222 274.941 487.4 275.395 487.624 275.736C487.848 276.077 488.104 276.32 488.392 276.464C488.686 276.608 488.992 276.68 489.312 276.68C489.627 276.68 489.931 276.608 490.224 276.464C490.518 276.32 490.776 276.077 491 275.736C491.224 275.395 491.403 274.941 491.536 274.376C491.675 273.805 491.744 273.093 491.744 272.24ZM499.833 269.264C499.833 269.707 499.761 270.104 499.617 270.456C499.479 270.808 499.289 271.109 499.049 271.36C498.809 271.605 498.532 271.795 498.217 271.928C497.903 272.056 497.572 272.12 497.225 272.12C496.852 272.12 496.505 272.056 496.185 271.928C495.871 271.795 495.596 271.605 495.361 271.36C495.132 271.109 494.951 270.808 494.817 270.456C494.684 270.104 494.617 269.707 494.617 269.264C494.617 268.811 494.684 268.405 494.817 268.048C494.951 267.685 495.132 267.381 495.361 267.136C495.596 266.885 495.871 266.693 496.185 266.56C496.505 266.427 496.852 266.36 497.225 266.36C497.599 266.36 497.943 266.427 498.257 266.56C498.577 266.693 498.852 266.885 499.081 267.136C499.316 267.381 499.5 267.685 499.633 268.048C499.767 268.405 499.833 268.811 499.833 269.264ZM498.505 269.264C498.505 268.939 498.471 268.664 498.401 268.44C498.337 268.211 498.247 268.027 498.129 267.888C498.017 267.744 497.881 267.643 497.721 267.584C497.567 267.52 497.401 267.488 497.225 267.488C497.044 267.488 496.876 267.52 496.721 267.584C496.567 267.643 496.433 267.744 496.321 267.888C496.209 268.027 496.121 268.211 496.057 268.44C495.993 268.664 495.961 268.939 495.961 269.264C495.961 269.584 495.993 269.853 496.057 270.072C496.121 270.291 496.209 270.469 496.321 270.608C496.433 270.741 496.567 270.837 496.721 270.896C496.876 270.955 497.044 270.984 497.225 270.984C497.401 270.984 497.567 270.955 497.721 270.896C497.881 270.837 498.017 270.741 498.129 270.608C498.247 270.469 498.337 270.291 498.401 270.072C498.471 269.853 498.505 269.584 498.505 269.264ZM503.785 266.76C503.844 266.685 503.913 266.621 503.993 266.568C504.079 266.509 504.196 266.48 504.345 266.48H505.585L497.097 277.736C497.039 277.811 496.967 277.875 496.881 277.928C496.796 277.976 496.692 278 496.569 278H495.289L503.785 266.76ZM506.281 275.288C506.281 275.731 506.209 276.128 506.065 276.48C505.921 276.832 505.729 277.131 505.489 277.376C505.249 277.621 504.972 277.811 504.657 277.944C504.343 278.072 504.012 278.136 503.665 278.136C503.292 278.136 502.945 278.072 502.625 277.944C502.311 277.811 502.036 277.621 501.801 277.376C501.572 277.131 501.391 276.832 501.257 276.48C501.129 276.128 501.065 275.731 501.065 275.288C501.065 274.835 501.129 274.429 501.257 274.072C501.391 273.709 501.572 273.403 501.801 273.152C502.036 272.901 502.311 272.712 502.625 272.584C502.945 272.451 503.292 272.384 503.665 272.384C504.039 272.384 504.385 272.451 504.705 272.584C505.025 272.712 505.3 272.901 505.529 273.152C505.764 273.403 505.948 273.709 506.081 274.072C506.215 274.429 506.281 274.835 506.281 275.288ZM504.953 275.288C504.953 274.963 504.919 274.688 504.849 274.464C504.785 274.235 504.695 274.051 504.577 273.912C504.46 273.768 504.321 273.667 504.161 273.608C504.007 273.544 503.841 273.512 503.665 273.512C503.489 273.512 503.324 273.544 503.169 273.608C503.015 273.667 502.879 273.768 502.761 273.912C502.649 274.051 502.561 274.235 502.497 274.464C502.433 274.688 502.401 274.963 502.401 275.288C502.401 275.608 502.433 275.877 502.497 276.096C502.561 276.315 502.649 276.493 502.761 276.632C502.879 276.765 503.015 276.861 503.169 276.92C503.324 276.979 503.489 277.008 503.665 277.008C503.841 277.008 504.007 276.979 504.161 276.92C504.321 276.861 504.46 276.765 504.577 276.632C504.695 276.493 504.785 276.315 504.849 276.096C504.919 275.877 504.953 275.608 504.953 275.288Z" fill="#B2B1B6"/>
<path d="M173.024 67.2229C173.411 67.2229 173.748 67.1768 174.037 67.0854C174.327 66.9887 174.568 66.8567 174.761 66.6876C174.953 66.5185 175.098 66.3186 175.195 66.0872C175.291 65.8512 175.339 65.5907 175.339 65.3059C175.339 64.7371 175.151 64.3031 174.775 64.0038C174.399 63.7045 173.83 63.5553 173.068 63.5553H171.693V67.2229H173.024ZM177.929 72.6483H176.417C176.118 72.6483 175.901 72.5326 175.766 72.3011L173.336 68.7926C173.253 68.6724 173.165 68.5856 173.068 68.5322C172.971 68.4789 172.827 68.4526 172.634 68.4526H171.693V72.6483H170.001V62.2315H173.068C173.752 62.2315 174.341 62.3011 174.833 62.4413C175.329 62.5814 175.737 62.7813 176.056 63.0417C176.374 63.2976 176.608 63.6059 176.757 63.9676C176.912 64.3293 176.989 64.7317 176.989 65.1757C176.989 65.5374 176.934 65.8747 176.822 66.1884C176.717 66.5022 176.559 66.7861 176.352 67.042C176.15 67.2979 175.899 67.5195 175.6 67.7075C175.3 67.8956 174.96 68.043 174.58 68.1488C174.787 68.2745 174.966 68.4499 175.115 68.6769L177.929 72.6483ZM183.254 68.1271C183.254 67.8667 183.215 67.6253 183.138 67.4037C183.066 67.1768 182.958 66.9814 182.813 66.8178C182.668 66.6487 182.487 66.5185 182.27 66.4271C182.058 66.3304 181.812 66.2825 181.532 66.2825C180.968 66.2825 180.524 66.4443 180.201 66.7671C179.879 67.09 179.673 67.5439 179.587 68.1271H183.254ZM179.543 69.082C179.562 69.5016 179.627 69.866 179.739 70.1743C179.85 70.4781 179.996 70.7313 180.18 70.9339C180.368 71.1364 180.589 71.2883 180.845 71.3896C181.106 71.4864 181.395 71.5343 181.713 71.5343C182.017 71.5343 182.28 71.5008 182.502 71.433C182.723 71.3607 182.917 71.2838 183.081 71.2015C183.244 71.1147 183.384 71.0378 183.5 70.97C183.616 70.8977 183.722 70.8615 183.818 70.8615C183.944 70.8615 184.04 70.9094 184.108 71.0062L184.549 71.5777C184.365 71.7947 184.158 71.9783 183.927 72.1275C183.695 72.2767 183.449 72.3996 183.189 72.4964C182.929 72.5877 182.661 72.6528 182.386 72.6917C182.111 72.7351 181.844 72.7568 181.583 72.7568C181.072 72.7568 180.597 72.6727 180.158 72.5036C179.724 72.33 179.345 72.0768 179.022 71.7441C178.704 71.4113 178.454 70.999 178.27 70.5071C178.092 70.0152 178.002 69.4482 178.002 68.8071C178.002 68.2962 178.082 67.8188 178.241 67.3748C178.405 66.9308 178.636 66.5456 178.936 66.2174C179.239 65.8891 179.606 65.6314 180.035 65.4433C180.469 65.2507 180.958 65.154 181.504 65.154C181.957 65.154 182.376 65.229 182.762 65.3782C183.148 65.5229 183.481 65.7372 183.761 66.022C184.04 66.3069 184.257 66.6559 184.412 67.071C184.571 67.4806 184.65 67.949 184.65 68.4743C184.65 68.7158 184.624 68.8767 184.571 68.959C184.517 69.0413 184.422 69.082 184.281 69.082H179.543ZM190.506 66.608C190.467 66.6758 190.424 66.7237 190.376 66.7527C190.328 66.7816 190.267 66.7961 190.195 66.7961C190.113 66.7961 190.024 66.7717 189.927 66.7237C189.831 66.6704 189.718 66.6125 189.587 66.5501C189.457 66.4877 189.303 66.4317 189.124 66.3837C188.951 66.3304 188.746 66.3042 188.51 66.3042C188.317 66.3042 188.141 66.3286 187.982 66.3765C187.827 66.4199 187.695 66.485 187.584 66.5718C187.478 66.6541 187.396 66.7527 187.338 66.8684C187.28 66.9796 187.251 67.0999 187.251 67.2301C187.251 67.4037 187.304 67.5484 187.41 67.6641C187.516 67.7799 187.656 67.8812 187.83 67.968C188.003 68.0503 188.201 68.1244 188.423 68.1922C188.644 68.26 188.871 68.3324 189.103 68.4092C189.334 68.4861 189.561 68.5756 189.783 68.6769C190.004 68.7782 190.202 68.9039 190.376 69.0531C190.55 69.1977 190.69 69.3759 190.795 69.5884C190.901 69.7954 190.955 70.0486 190.955 70.3479C190.955 70.6951 190.892 71.0161 190.767 71.31C190.641 71.6039 190.458 71.8598 190.217 72.0768C189.975 72.2938 189.674 72.4629 189.313 72.5832C188.955 72.7035 188.546 72.764 188.083 72.764C187.827 72.764 187.579 72.7396 187.338 72.6917C187.102 72.6483 186.875 72.5877 186.658 72.5109C186.445 72.4286 186.245 72.3327 186.057 72.2215C185.874 72.1103 185.71 71.99 185.565 71.8598L185.927 71.2666C185.971 71.1943 186.024 71.1391 186.086 71.1002C186.154 71.0568 186.235 71.0351 186.332 71.0351C186.433 71.0351 186.532 71.0686 186.629 71.1364C186.73 71.1988 186.846 71.2693 186.976 71.3462C187.111 71.4231 187.273 71.4954 187.461 71.5632C187.649 71.6256 187.883 71.6573 188.162 71.6573C188.394 71.6573 188.594 71.631 188.763 71.5777C188.932 71.5198 189.071 71.4429 189.182 71.3462C189.294 71.2494 189.375 71.1409 189.428 71.0207C189.482 70.895 189.508 70.763 189.508 70.6228C189.508 70.4347 189.455 70.2801 189.349 70.1598C189.243 70.0396 189.1 69.9356 188.922 69.8488C188.748 69.762 188.548 69.6851 188.322 69.6173C188.1 69.5495 187.873 69.4771 187.642 69.4003C187.41 69.3234 187.181 69.2339 186.954 69.1326C186.733 69.0313 186.532 68.9039 186.354 68.7492C186.18 68.5901 186.04 68.3993 185.934 68.1777C185.829 67.9508 185.775 67.6759 185.775 67.3531C185.775 67.0592 185.833 66.7789 185.949 66.514C186.069 66.249 186.243 66.0148 186.47 65.8123C186.701 65.6097 186.983 65.4506 187.316 65.3348C187.653 65.2146 188.042 65.154 188.481 65.154C188.977 65.154 189.428 65.2336 189.833 65.3927C190.239 65.5518 190.578 65.7689 190.853 66.0437L190.506 66.608ZM195.606 65.154C196.151 65.154 196.643 65.2435 197.082 65.4216C197.526 65.5998 197.902 65.853 198.21 66.1812C198.524 66.5094 198.765 66.9073 198.934 67.3748C199.103 67.8423 199.187 68.3685 199.187 68.9518C199.187 69.535 199.103 70.0613 198.934 70.5288C198.765 70.9963 198.524 71.3968 198.21 71.7296C197.902 72.0578 197.526 72.311 197.082 72.4892C196.643 72.6673 196.151 72.7568 195.606 72.7568C195.056 72.7568 194.56 72.6673 194.116 72.4892C193.677 72.311 193.301 72.0578 192.987 71.7296C192.675 71.3968 192.433 70.9963 192.264 70.5288C192.096 70.0613 192.011 69.535 192.011 68.9518C192.011 68.3685 192.096 67.8423 192.264 67.3748C192.433 66.9073 192.675 66.5094 192.987 66.1812C193.301 65.853 193.677 65.5998 194.116 65.4216C194.56 65.2435 195.056 65.154 195.606 65.154ZM195.606 71.5415C196.272 71.5415 196.766 71.32 197.089 70.876C197.417 70.4275 197.581 69.7882 197.581 68.959C197.581 68.1298 197.417 67.4905 197.089 67.042C196.766 66.589 196.272 66.362 195.606 66.362C194.931 66.362 194.43 66.589 194.101 67.042C193.774 67.4905 193.609 68.1298 193.609 68.959C193.609 69.7882 193.774 70.4275 194.101 70.876C194.43 71.32 194.931 71.5415 195.606 71.5415ZM206.903 65.2697V72.6483H205.962C205.755 72.6483 205.622 72.5497 205.564 72.3517L205.449 71.6645C205.294 71.8282 205.13 71.9783 204.957 72.113C204.788 72.2477 204.607 72.3635 204.414 72.4602C204.222 72.557 204.014 72.6311 203.792 72.6845C203.575 72.7378 203.341 72.764 203.09 72.764C202.685 72.764 202.328 72.6962 202.02 72.5615C201.711 72.4268 201.451 72.236 201.239 71.99C201.031 71.7441 200.874 71.4502 200.768 71.1075C200.663 70.7602 200.609 70.3796 200.609 69.9645V65.2697H202.164V69.9645C202.164 70.4609 202.278 70.8471 202.504 71.1219C202.736 71.3968 203.086 71.5343 203.553 71.5343C203.896 71.5343 204.214 71.4574 204.508 71.3028C204.808 71.1436 205.087 70.9266 205.347 70.6517V65.2697H206.903ZM210.26 66.6369C210.492 66.1694 210.771 65.8023 211.099 65.5374C211.427 65.267 211.82 65.1323 212.278 65.1323C212.438 65.1323 212.587 65.1513 212.727 65.1901C212.866 65.2236 212.992 65.277 213.103 65.3493L212.995 66.5212C212.975 66.6035 212.944 66.6613 212.9 66.6948C212.862 66.7237 212.808 66.7382 212.741 66.7382C212.669 66.7382 212.565 66.7265 212.43 66.702C212.295 66.6731 212.153 66.6586 212.003 66.6586C211.786 66.6586 211.593 66.6903 211.425 66.7527C211.26 66.8151 211.111 66.9073 210.976 67.0276C210.846 67.1478 210.73 67.2952 210.629 67.4688C210.528 67.6424 210.434 67.8405 210.347 68.062V72.6483H208.792V65.2697H209.696C209.86 65.2697 209.973 65.3014 210.036 65.3638C210.098 65.4216 210.142 65.5256 210.166 65.6748L210.26 66.6369ZM219.094 66.7165C219.048 66.7789 219.003 66.8277 218.958 66.8612C218.913 66.8946 218.849 66.9118 218.768 66.9118C218.687 66.9118 218.596 66.8829 218.506 66.825C218.424 66.7671 218.316 66.7047 218.189 66.6369C218.072 66.5646 217.918 66.4995 217.746 66.4416C217.574 66.3837 217.357 66.3548 217.095 66.3548C216.761 66.3548 216.462 66.4154 216.209 66.5357C215.956 66.6559 215.744 66.8295 215.571 67.0565C215.402 67.278 215.274 67.5511 215.187 67.8739C215.105 68.1922 215.064 68.5512 215.064 68.9518C215.064 69.3668 215.11 69.7358 215.202 70.0586C215.293 70.3814 215.423 70.6545 215.592 70.876C215.766 71.0975 215.974 71.2666 216.218 71.3824C216.462 71.4981 216.734 71.556 217.041 71.556C217.339 71.556 217.584 71.5198 217.773 71.4475C217.954 71.3751 218.117 71.2956 218.244 71.2088C218.361 71.1219 218.47 71.0424 218.56 70.97C218.651 70.8977 218.75 70.8615 218.849 70.8615C218.976 70.8615 219.066 70.9094 219.139 71.0062L219.582 71.5777C219.401 71.7947 219.202 71.9783 218.985 72.1275C218.768 72.2767 218.542 72.3996 218.298 72.4964C218.054 72.5877 217.81 72.6528 217.547 72.6917C217.285 72.7351 217.023 72.7568 216.761 72.7568C216.3 72.7568 215.865 72.6727 215.469 72.5036C215.073 72.33 214.726 72.0813 214.428 71.7585C214.133 71.4303 213.9 71.0324 213.726 70.5649C213.557 70.092 213.473 69.5549 213.473 68.9518C213.473 68.4065 213.55 67.9029 213.704 67.4399C213.858 66.9724 214.082 66.5691 214.377 66.2318C214.675 65.8946 215.044 65.6314 215.484 65.4433C215.92 65.2507 216.426 65.154 217.005 65.154C217.538 65.154 218.008 65.2408 218.415 65.4144C218.822 65.588 219.184 65.834 219.51 66.1523L219.094 66.7165ZM225.541 68.1271C225.541 67.8667 225.505 67.6253 225.423 67.4037C225.351 67.1768 225.242 66.9814 225.098 66.8178C224.953 66.6487 224.772 66.5185 224.555 66.4271C224.347 66.3304 224.103 66.2825 223.823 66.2825C223.253 66.2825 222.81 66.4443 222.484 66.7671C222.168 67.09 221.96 67.5439 221.87 68.1271H225.541ZM221.833 69.082C221.852 69.5016 221.915 69.866 222.023 70.1743C222.141 70.4781 222.286 70.7313 222.466 70.9339C222.656 71.1364 222.873 71.2883 223.136 71.3896C223.389 71.4864 223.678 71.5343 224.004 71.5343C224.302 71.5343 224.564 71.5008 224.79 71.433C225.007 71.3607 225.206 71.2838 225.369 71.2015C225.532 71.1147 225.667 71.0378 225.785 70.97C225.903 70.8977 226.011 70.8615 226.101 70.8615C226.228 70.8615 226.327 70.9094 226.391 71.0062L226.834 71.5777C226.653 71.7947 226.445 71.9783 226.21 72.1275C225.984 72.2767 225.74 72.3996 225.477 72.4964C225.215 72.5877 224.944 72.6528 224.673 72.6917C224.401 72.7351 224.13 72.7568 223.868 72.7568C223.362 72.7568 222.882 72.6727 222.448 72.5036C222.014 72.33 221.634 72.0768 221.309 71.7441C220.992 71.4113 220.739 70.999 220.558 70.5071C220.378 70.0152 220.287 69.4482 220.287 68.8071C220.287 68.2962 220.369 67.8188 220.531 67.3748C220.694 66.9308 220.92 66.5456 221.219 66.2174C221.526 65.8891 221.897 65.6314 222.322 65.4433C222.756 65.2507 223.244 65.154 223.787 65.154C224.248 65.154 224.664 65.229 225.053 65.3782C225.432 65.5229 225.767 65.7372 226.047 66.022C226.327 66.3069 226.545 66.6559 226.698 67.071C226.861 67.4806 226.933 67.949 226.933 68.4743C226.933 68.7158 226.915 68.8767 226.861 68.959C226.807 69.0413 226.707 69.082 226.572 69.082H221.833ZM233.543 70.7964C233.76 71.0758 233.995 71.2739 234.258 71.3896C234.52 71.5008 234.8 71.556 235.117 71.556C235.723 71.556 236.193 71.3344 236.536 70.8905C236.88 70.4465 237.052 69.7864 237.052 68.9084C237.052 68.4553 237.007 68.0692 236.934 67.7509C236.853 67.4281 236.744 67.165 236.6 66.9625C236.455 66.7599 236.274 66.6125 236.075 66.5212C235.867 66.4299 235.632 66.3837 235.37 66.3837C234.972 66.3837 234.628 66.4706 234.339 66.6442C234.059 66.8133 233.797 67.0565 233.543 67.3748V70.7964ZM233.471 66.3403C233.778 65.9786 234.122 65.6866 234.52 65.465C234.909 65.2435 235.37 65.1323 235.894 65.1323C236.301 65.1323 236.681 65.2164 237.016 65.3855C237.359 65.5491 237.648 65.7906 237.884 66.1089C238.128 66.4271 238.318 66.8223 238.444 67.2952C238.58 67.7627 238.643 68.3007 238.643 68.9084C238.643 69.4536 238.571 69.9618 238.426 70.4347C238.282 70.9022 238.064 71.31 237.793 71.6573C237.522 72 237.187 72.2694 236.799 72.4675C236.401 72.6601 235.967 72.7568 235.469 72.7568C235.035 72.7568 234.665 72.6872 234.366 72.547C234.068 72.4069 233.797 72.2143 233.543 71.9683V75.1006H231.988V65.2697H232.928C233.145 65.2697 233.281 65.3683 233.335 65.5663L233.471 66.3403ZM245 68.1271C245 67.8667 244.955 67.6253 244.882 67.4037C244.81 67.1768 244.702 66.9814 244.557 66.8178C244.412 66.6487 244.231 66.5185 244.014 66.4271C243.797 66.3304 243.553 66.2825 243.273 66.2825C242.712 66.2825 242.269 66.4443 241.944 66.7671C241.618 67.09 241.419 67.5439 241.329 68.1271H245ZM241.284 69.082C241.302 69.5016 241.374 69.866 241.483 70.1743C241.591 70.4781 241.736 70.7313 241.926 70.9339C242.106 71.1364 242.333 71.2883 242.586 71.3896C242.848 71.4864 243.137 71.5343 243.454 71.5343C243.761 71.5343 244.023 71.5008 244.24 71.433C244.466 71.3607 244.656 71.2838 244.819 71.2015C244.991 71.1147 245.127 71.0378 245.244 70.97C245.362 70.8977 245.461 70.8615 245.561 70.8615C245.687 70.8615 245.787 70.9094 245.85 71.0062L246.293 71.5777C246.112 71.7947 245.904 71.9783 245.669 72.1275C245.434 72.2767 245.19 72.3996 244.928 72.4964C244.674 72.5877 244.403 72.6528 244.132 72.6917C243.852 72.7351 243.589 72.7568 243.327 72.7568C242.812 72.7568 242.342 72.6727 241.898 72.5036C241.464 72.33 241.085 72.0768 240.768 71.7441C240.443 71.4113 240.199 70.999 240.009 70.5071C239.837 70.0152 239.746 69.4482 239.746 68.8071C239.746 68.2962 239.828 67.8188 239.981 67.3748C240.144 66.9308 240.379 66.5456 240.678 66.2174C240.985 65.8891 241.347 65.6314 241.781 65.4433C242.215 65.2507 242.703 65.154 243.246 65.154C243.698 65.154 244.123 65.229 244.503 65.3782C244.892 65.5229 245.226 65.7372 245.506 66.022C245.787 66.3069 246.004 66.6559 246.157 67.071C246.311 67.4806 246.393 67.949 246.393 68.4743C246.393 68.7158 246.365 68.8767 246.311 68.959C246.257 69.0413 246.166 69.082 246.022 69.082H241.284ZM249.313 66.6369C249.539 66.1694 249.82 65.8023 250.154 65.5374C250.48 65.267 250.869 65.1323 251.33 65.1323C251.492 65.1323 251.637 65.1513 251.782 65.1901C251.917 65.2236 252.044 65.277 252.152 65.3493L252.044 66.5212C252.026 66.6035 251.999 66.6613 251.954 66.6948C251.917 66.7237 251.863 66.7382 251.791 66.7382C251.718 66.7382 251.619 66.7265 251.483 66.702C251.348 66.6731 251.203 66.6586 251.058 66.6586C250.841 66.6586 250.642 66.6903 250.48 66.7527C250.308 66.8151 250.163 66.9073 250.028 67.0276C249.901 67.1478 249.783 67.2952 249.684 67.4688C249.575 67.6424 249.485 67.8405 249.395 68.062V72.6483H247.839V65.2697H248.743C248.915 65.2697 249.024 65.3014 249.087 65.3638C249.15 65.4216 249.196 65.5256 249.214 65.6748L249.313 66.6369ZM260.01 67.5412C260.381 67.5412 260.716 67.4932 260.996 67.3965C261.285 67.2997 261.529 67.165 261.71 66.9914C261.909 66.8133 262.054 66.598 262.144 66.3476C262.244 66.0971 262.289 65.8168 262.289 65.5084C262.289 65.2046 262.244 64.9324 262.144 64.691C262.054 64.4496 261.918 64.2452 261.728 64.0761C261.539 63.907 261.303 63.7795 261.014 63.6927C260.725 63.6014 260.39 63.5553 260.01 63.5553H258.455V67.5412H260.01ZM260.01 62.2315C260.689 62.2315 261.276 62.3111 261.774 62.4702C262.271 62.6294 262.687 62.8536 263.012 63.143C263.338 63.4278 263.582 63.7723 263.736 64.1774C263.899 64.578 263.98 65.0211 263.98 65.5084C263.98 66.0049 263.89 66.4606 263.727 66.8756C263.555 67.2853 263.302 67.6397 262.976 67.939C262.642 68.2329 262.226 68.4644 261.728 68.6335C261.24 68.7972 260.661 68.8794 260.01 68.8794H258.455V72.6483H256.764V62.2315H260.01ZM266.647 66.6369C266.883 66.1694 267.163 65.8023 267.488 65.5374C267.814 65.267 268.212 65.1323 268.664 65.1323C268.827 65.1323 268.971 65.1513 269.116 65.1901C269.252 65.2236 269.378 65.277 269.487 65.3493L269.378 66.5212C269.36 66.6035 269.333 66.6613 269.288 66.6948C269.252 66.7237 269.197 66.7382 269.125 66.7382C269.053 66.7382 268.953 66.7265 268.818 66.702C268.682 66.6731 268.537 66.6586 268.393 66.6586C268.176 66.6586 267.977 66.6903 267.814 66.7527C267.651 66.8151 267.497 66.9073 267.362 67.0276C267.235 67.1478 267.118 67.2952 267.018 67.4688C266.919 67.6424 266.819 67.8405 266.738 68.062V72.6483H265.183V65.2697H266.087C266.25 65.2697 266.358 65.3014 266.421 65.3638C266.485 65.4216 266.53 65.5256 266.557 65.6748L266.647 66.6369ZM273.456 65.154C273.999 65.154 274.496 65.2435 274.93 65.4216C275.373 65.5998 275.753 65.853 276.061 66.1812C276.377 66.5094 276.612 66.9073 276.784 67.3748C276.956 67.8423 277.037 68.3685 277.037 68.9518C277.037 69.535 276.956 70.0613 276.784 70.5288C276.612 70.9963 276.377 71.3968 276.061 71.7296C275.753 72.0578 275.373 72.311 274.93 72.4892C274.496 72.6673 273.999 72.7568 273.456 72.7568C272.905 72.7568 272.407 72.6673 271.964 72.4892C271.53 72.311 271.151 72.0578 270.834 71.7296C270.527 71.3968 270.282 70.9963 270.111 70.5288C269.948 70.0613 269.858 69.535 269.858 68.9518C269.858 68.3685 269.948 67.8423 270.111 67.3748C270.282 66.9073 270.527 66.5094 270.834 66.1812C271.151 65.853 271.53 65.5998 271.964 65.4216C272.407 65.2435 272.905 65.154 273.456 65.154ZM273.456 71.5415C274.126 71.5415 274.614 71.32 274.939 70.876C275.265 70.4275 275.428 69.7882 275.428 68.959C275.428 68.1298 275.265 67.4905 274.939 67.042C274.614 66.589 274.126 66.362 273.456 66.362C272.778 66.362 272.281 66.589 271.955 67.042C271.621 67.4905 271.458 68.1298 271.458 68.959C271.458 69.7882 271.621 70.4275 271.955 70.876C272.281 71.32 272.778 71.5415 273.456 71.5415ZM280.148 65.2697V73.0317C280.148 73.34 280.112 73.6294 280.03 73.8998C279.949 74.1747 279.813 74.4134 279.641 74.6159C279.46 74.8185 279.225 74.9776 278.945 75.0934C278.665 75.2091 278.321 75.267 277.923 75.267C277.751 75.267 277.607 75.2552 277.471 75.2308C277.336 75.2064 277.191 75.1729 277.055 75.1295L277.109 74.2832C277.128 74.1864 277.173 74.1312 277.236 74.1168C277.299 74.1023 277.426 74.0951 277.607 74.0951C277.968 74.0951 278.231 74.0128 278.375 73.8491C278.52 73.69 278.592 73.4178 278.592 73.0317V65.2697H280.148ZM280.401 63.0417C280.401 63.1818 280.374 63.3139 280.32 63.4395C280.265 63.5652 280.193 63.6756 280.093 63.7723C279.994 63.8636 279.885 63.9387 279.759 63.9966C279.632 64.0499 279.497 64.0761 279.352 64.0761C279.216 64.0761 279.081 64.0499 278.954 63.9966C278.837 63.9387 278.728 63.8636 278.629 63.7723C278.538 63.6756 278.466 63.5652 278.412 63.4395C278.366 63.3139 278.339 63.1818 278.339 63.0417C278.339 62.897 278.366 62.7623 278.412 62.6366C278.466 62.5109 278.538 62.4024 278.629 62.3111C278.728 62.2143 278.837 62.1402 278.954 62.0868C279.081 62.0289 279.216 62 279.352 62C279.497 62 279.632 62.0289 279.759 62.0868C279.885 62.1402 279.994 62.2143 280.093 62.3111C280.193 62.4024 280.265 62.5109 280.32 62.6366C280.374 62.7623 280.401 62.897 280.401 63.0417ZM286.948 68.1271C286.948 67.8667 286.902 67.6253 286.83 67.4037C286.758 67.1768 286.649 66.9814 286.504 66.8178C286.36 66.6487 286.179 66.5185 285.962 66.4271C285.745 66.3304 285.501 66.2825 285.221 66.2825C284.66 66.2825 284.217 66.4443 283.891 66.7671C283.566 67.09 283.367 67.5439 283.276 68.1271H286.948ZM283.231 69.082C283.249 69.5016 283.322 69.866 283.43 70.1743C283.539 70.4781 283.683 70.7313 283.873 70.9339C284.054 71.1364 284.28 71.2883 284.533 71.3896C284.796 71.4864 285.085 71.5343 285.401 71.5343C285.709 71.5343 285.971 71.5008 286.188 71.433C286.414 71.3607 286.604 71.2838 286.767 71.2015C286.939 71.1147 287.074 71.0378 287.192 70.97C287.309 70.8977 287.409 70.8615 287.508 70.8615C287.635 70.8615 287.734 70.9094 287.798 71.0062L288.241 71.5777C288.06 71.7947 287.852 71.9783 287.617 72.1275C287.382 72.2767 287.137 72.3996 286.875 72.4964C286.622 72.5877 286.351 72.6528 286.079 72.6917C285.799 72.7351 285.537 72.7568 285.275 72.7568C284.759 72.7568 284.289 72.6727 283.846 72.5036C283.412 72.33 283.032 72.0768 282.716 71.7441C282.39 71.4113 282.146 70.999 281.956 70.5071C281.784 70.0152 281.694 69.4482 281.694 68.8071C281.694 68.2962 281.775 67.8188 281.929 67.3748C282.092 66.9308 282.327 66.5456 282.625 66.2174C282.933 65.8891 283.294 65.6314 283.729 65.4433C284.163 65.2507 284.651 65.154 285.193 65.154C285.645 65.154 286.07 65.229 286.45 65.3782C286.839 65.5229 287.174 65.7372 287.454 66.022C287.734 66.3069 287.951 66.6559 288.105 67.071C288.259 67.4806 288.34 67.949 288.34 68.4743C288.34 68.7158 288.313 68.8767 288.259 68.959C288.204 69.0413 288.114 69.082 287.969 69.082H283.231ZM295.004 66.7165C294.959 66.7789 294.914 66.8277 294.869 66.8612C294.823 66.8946 294.76 66.9118 294.679 66.9118C294.597 66.9118 294.516 66.8829 294.417 66.825C294.335 66.7671 294.227 66.7047 294.1 66.6369C293.983 66.5646 293.838 66.4995 293.657 66.4416C293.485 66.3837 293.268 66.3548 293.006 66.3548C292.671 66.3548 292.373 66.4154 292.12 66.5357C291.867 66.6559 291.659 66.8295 291.487 67.0565C291.315 67.278 291.188 67.5511 291.098 67.8739C291.017 68.1922 290.98 68.5512 290.98 68.9518C290.98 69.3668 291.026 69.7358 291.116 70.0586C291.207 70.3814 291.333 70.6545 291.505 70.876C291.677 71.0975 291.885 71.2666 292.129 71.3824C292.373 71.4981 292.644 71.556 292.952 71.556C293.25 71.556 293.494 71.5198 293.684 71.4475C293.874 71.3751 294.028 71.2956 294.154 71.2088C294.281 71.1219 294.38 71.0424 294.471 70.97C294.561 70.8977 294.661 70.8615 294.76 70.8615C294.887 70.8615 294.986 70.9094 295.05 71.0062L295.493 71.5777C295.312 71.7947 295.113 71.9783 294.896 72.1275C294.679 72.2767 294.453 72.3996 294.209 72.4964C293.973 72.5877 293.72 72.6528 293.458 72.6917C293.196 72.7351 292.934 72.7568 292.671 72.7568C292.21 72.7568 291.785 72.6727 291.378 72.5036C290.989 72.33 290.637 72.0813 290.338 71.7585C290.049 71.4303 289.814 71.0324 289.642 70.5649C289.47 70.092 289.389 69.5549 289.389 68.9518C289.389 68.4065 289.461 67.9029 289.615 67.4399C289.769 66.9724 289.995 66.5691 290.293 66.2318C290.592 65.8946 290.962 65.6314 291.396 65.4433C291.839 65.2507 292.346 65.154 292.916 65.154C293.449 65.154 293.919 65.2408 294.326 65.4144C294.733 65.588 295.104 65.834 295.42 66.1523L295.004 66.7165ZM299.11 72.764C298.495 72.764 298.024 72.5931 297.69 72.2504C297.364 71.9032 297.202 71.4158 297.202 70.7892V66.4923H296.388C296.297 66.4923 296.225 66.466 296.162 66.4127C296.098 66.3548 296.071 66.2707 296.071 66.1595V65.5301L297.265 65.3565L297.599 63.2225C297.627 63.1402 297.672 63.0751 297.726 63.0272C297.78 62.9739 297.862 62.9476 297.961 62.9476H298.757V65.371H300.801V66.4923H298.757V70.6807C298.757 70.9456 298.82 71.1482 298.947 71.2883C299.082 71.4285 299.254 71.4981 299.471 71.4981C299.589 71.4981 299.697 71.4836 299.779 71.4547C299.869 71.4212 299.941 71.3869 300.005 71.3534C300.068 71.3145 300.122 71.2811 300.167 71.2522C300.213 71.2187 300.258 71.2015 300.303 71.2015C300.385 71.2015 300.457 71.2494 300.511 71.3462L300.972 72.1058C300.737 72.3183 300.448 72.4819 300.122 72.5977C299.797 72.7089 299.453 72.764 299.11 72.764Z" fill="white"/>
<path d="M473.024 67.2229C473.41 67.2229 473.747 67.1768 474.037 67.0854C474.326 66.9887 474.567 66.8567 474.76 66.6876C474.953 66.5185 475.097 66.3186 475.194 66.0872C475.291 65.8512 475.339 65.5907 475.339 65.3059C475.339 64.7371 475.151 64.3031 474.774 64.0038C474.398 63.7045 473.829 63.5553 473.067 63.5553H471.693V67.2229H473.024ZM477.928 72.6483H476.416C476.117 72.6483 475.9 72.5326 475.765 72.3011L473.335 68.7926C473.253 68.6724 473.164 68.5856 473.067 68.5322C472.97 68.4789 472.826 68.4526 472.633 68.4526H471.693V72.6483H470V62.2315H473.067C473.752 62.2315 474.34 62.3011 474.832 62.4413C475.329 62.5814 475.737 62.7813 476.055 63.0417C476.373 63.2976 476.607 63.6059 476.757 63.9676C476.911 64.3293 476.988 64.7317 476.988 65.1757C476.988 65.5374 476.933 65.8747 476.822 66.1884C476.716 66.5022 476.558 66.7861 476.351 67.042C476.149 67.2979 475.898 67.5195 475.599 67.7075C475.3 67.8956 474.96 68.043 474.579 68.1488C474.786 68.2745 474.965 68.4499 475.114 68.6769L477.928 72.6483ZM483.253 68.1271C483.253 67.8667 483.215 67.6253 483.138 67.4037C483.065 67.1768 482.957 66.9814 482.812 66.8178C482.667 66.6487 482.487 66.5185 482.27 66.4271C482.057 66.3304 481.811 66.2825 481.532 66.2825C480.967 66.2825 480.524 66.4443 480.201 66.7671C479.878 67.09 479.673 67.5439 479.586 68.1271H483.253ZM479.542 69.082C479.561 69.5016 479.627 69.866 479.738 70.1743C479.849 70.4781 479.995 70.7313 480.179 70.9339C480.367 71.1364 480.589 71.2883 480.845 71.3896C481.105 71.4864 481.394 71.5343 481.713 71.5343C482.016 71.5343 482.28 71.5008 482.501 71.433C482.723 71.3607 482.916 71.2838 483.08 71.2015C483.243 71.1147 483.384 71.0378 483.499 70.97C483.615 70.8977 483.721 70.8615 483.818 70.8615C483.943 70.8615 484.039 70.9094 484.107 71.0062L484.548 71.5777C484.365 71.7947 484.158 71.9783 483.926 72.1275C483.695 72.2767 483.449 72.3996 483.188 72.4964C482.928 72.5877 482.66 72.6528 482.385 72.6917C482.11 72.7351 481.843 72.7568 481.582 72.7568C481.072 72.7568 480.596 72.6727 480.157 72.5036C479.723 72.33 479.344 72.0768 479.022 71.7441C478.703 71.4113 478.453 70.999 478.269 70.5071C478.091 70.0152 478.002 69.4482 478.002 68.8071C478.002 68.2962 478.081 67.8188 478.24 67.3748C478.404 66.9308 478.636 66.5456 478.935 66.2174C479.239 65.8891 479.605 65.6314 480.034 65.4433C480.468 65.2507 480.958 65.154 481.503 65.154C481.956 65.154 482.375 65.229 482.762 65.3782C483.148 65.5229 483.48 65.7372 483.76 66.022C484.039 66.3069 484.256 66.6559 484.411 67.071C484.57 67.4806 484.65 67.949 484.65 68.4743C484.65 68.7158 484.623 68.8767 484.57 68.959C484.517 69.0413 484.421 69.082 484.281 69.082H479.542ZM490.505 66.608C490.467 66.6758 490.423 66.7237 490.375 66.7527C490.327 66.7816 490.267 66.7961 490.194 66.7961C490.112 66.7961 490.023 66.7717 489.927 66.7237C489.83 66.6704 489.717 66.6125 489.587 66.5501C489.456 66.4877 489.302 66.4317 489.124 66.3837C488.95 66.3304 488.745 66.3042 488.509 66.3042C488.316 66.3042 488.14 66.3286 487.981 66.3765C487.826 66.4199 487.694 66.485 487.583 66.5718C487.477 66.6541 487.395 66.7527 487.337 66.8684C487.279 66.9796 487.25 67.0999 487.25 67.2301C487.25 67.4037 487.303 67.5484 487.409 67.6641C487.515 67.7799 487.655 67.8812 487.829 67.968C488.002 68.0503 488.201 68.1244 488.422 68.1922C488.644 68.26 488.871 68.3324 489.102 68.4092C489.333 68.4861 489.56 68.5756 489.782 68.6769C490.004 68.7782 490.202 68.9039 490.375 69.0531C490.549 69.1977 490.689 69.3759 490.795 69.5884C490.901 69.7954 490.954 70.0486 490.954 70.3479C490.954 70.6951 490.892 71.0161 490.766 71.31C490.64 71.6039 490.457 71.8598 490.216 72.0768C489.975 72.2938 489.673 72.4629 489.312 72.5832C488.955 72.7035 488.545 72.764 488.082 72.764C487.826 72.764 487.578 72.7396 487.337 72.6917C487.101 72.6483 486.874 72.5877 486.657 72.5109C486.444 72.4286 486.245 72.3327 486.057 72.2215C485.873 72.1103 485.709 71.99 485.565 71.8598L485.926 71.2666C485.97 71.1943 486.023 71.1391 486.085 71.1002C486.153 71.0568 486.235 71.0351 486.331 71.0351C486.433 71.0351 486.531 71.0686 486.628 71.1364C486.729 71.1988 486.845 71.2693 486.975 71.3462C487.11 71.4231 487.272 71.4954 487.46 71.5632C487.648 71.6256 487.882 71.6573 488.162 71.6573C488.393 71.6573 488.593 71.631 488.762 71.5777C488.931 71.5198 489.07 71.4429 489.182 71.3462C489.293 71.2494 489.374 71.1409 489.428 71.0207C489.481 70.895 489.507 70.763 489.507 70.6228C489.507 70.4347 489.454 70.2801 489.348 70.1598C489.242 70.0396 489.099 69.9356 488.921 69.8488C488.748 69.762 488.548 69.6851 488.321 69.6173C488.099 69.5495 487.872 69.4771 487.641 69.4003C487.409 69.3234 487.181 69.2339 486.954 69.1326C486.732 69.0313 486.531 68.9039 486.353 68.7492C486.18 68.5901 486.039 68.3993 485.934 68.1777C485.828 67.9508 485.774 67.6759 485.774 67.3531C485.774 67.0592 485.832 66.7789 485.948 66.514C486.068 66.249 486.242 66.0148 486.469 65.8123C486.7 65.6097 486.983 65.4506 487.315 65.3348C487.653 65.2146 488.041 65.154 488.48 65.154C488.976 65.154 489.428 65.2336 489.833 65.3927C490.238 65.5518 490.578 65.7689 490.853 66.0437L490.505 66.608ZM495.605 65.154C496.151 65.154 496.642 65.2435 497.081 65.4216C497.525 65.5998 497.901 65.853 498.21 66.1812C498.523 66.5094 498.765 66.9073 498.933 67.3748C499.102 67.8423 499.186 68.3685 499.186 68.9518C499.186 69.535 499.102 70.0613 498.933 70.5288C498.765 70.9963 498.523 71.3968 498.21 71.7296C497.901 72.0578 497.525 72.311 497.081 72.4892C496.642 72.6673 496.151 72.7568 495.605 72.7568C495.056 72.7568 494.559 72.6673 494.115 72.4892C493.677 72.311 493.3 72.0578 492.987 71.7296C492.674 71.3968 492.432 70.9963 492.263 70.5288C492.095 70.0613 492.01 69.535 492.01 68.9518C492.01 68.3685 492.095 67.8423 492.263 67.3748C492.432 66.9073 492.674 66.5094 492.987 66.1812C493.3 65.853 493.677 65.5998 494.115 65.4216C494.559 65.2435 495.056 65.154 495.605 65.154ZM495.605 71.5415C496.271 71.5415 496.765 71.32 497.088 70.876C497.417 70.4275 497.58 69.7882 497.58 68.959C497.58 68.1298 497.417 67.4905 497.088 67.042C496.765 66.589 496.271 66.362 495.605 66.362C494.931 66.362 494.429 66.589 494.101 67.042C493.773 67.4905 493.609 68.1298 493.609 68.959C493.609 69.7882 493.773 70.4275 494.101 70.876C494.429 71.32 494.931 71.5415 495.605 71.5415ZM506.902 65.2697V72.6483H505.962C505.754 72.6483 505.622 72.5497 505.564 72.3517L505.448 71.6645C505.293 71.8282 505.13 71.9783 504.956 72.113C504.787 72.2477 504.606 72.3635 504.414 72.4602C504.221 72.557 504.013 72.6311 503.791 72.6845C503.574 72.7378 503.34 72.764 503.09 72.764C502.685 72.764 502.327 72.6962 502.019 72.5615C501.711 72.4268 501.45 72.236 501.238 71.99C501.031 71.7441 500.873 71.4502 500.768 71.1075C500.662 70.7602 500.608 70.3796 500.608 69.9645V65.2697H502.164V69.9645C502.164 70.4609 502.277 70.8471 502.504 71.1219C502.735 71.3968 503.085 71.5343 503.553 71.5343C503.895 71.5343 504.214 71.4574 504.508 71.3028C504.807 71.1436 505.086 70.9266 505.347 70.6517V65.2697H506.902ZM510.259 66.6369C510.491 66.1694 510.77 65.8023 511.098 65.5374C511.426 65.267 511.819 65.1323 512.278 65.1323C512.437 65.1323 512.586 65.1513 512.726 65.1901C512.865 65.2236 512.991 65.277 513.102 65.3493L512.994 66.5212C512.974 66.6035 512.943 66.6613 512.9 66.6948C512.861 66.7237 512.808 66.7382 512.741 66.7382C512.668 66.7382 512.564 66.7265 512.43 66.702C512.294 66.6731 512.152 66.6586 512.003 66.6586C511.786 66.6586 511.592 66.6903 511.424 66.7527C511.259 66.8151 511.11 66.9073 510.976 67.0276C510.845 67.1478 510.73 67.2952 510.628 67.4688C510.527 67.6424 510.433 67.8405 510.346 68.062V72.6483H508.791V65.2697H509.695C509.859 65.2697 509.972 65.3014 510.035 65.3638C510.098 65.4216 510.141 65.5256 510.165 65.6748L510.259 66.6369ZM519.093 66.7165C519.048 66.7789 519.002 66.8277 518.957 66.8612C518.912 66.8946 518.849 66.9118 518.767 66.9118C518.686 66.9118 518.596 66.8829 518.505 66.825C518.424 66.7671 518.315 66.7047 518.189 66.6369C518.071 66.5646 517.917 66.4995 517.746 66.4416C517.574 66.3837 517.357 66.3548 517.095 66.3548C516.76 66.3548 516.462 66.4154 516.208 66.5357C515.955 66.6559 515.744 66.8295 515.57 67.0565C515.401 67.278 515.273 67.5511 515.187 67.8739C515.104 68.1922 515.064 68.5512 515.064 68.9518C515.064 69.3668 515.109 69.7358 515.201 70.0586C515.292 70.3814 515.423 70.6545 515.592 70.876C515.765 71.0975 515.973 71.2666 516.217 71.3824C516.462 71.4981 516.733 71.556 517.04 71.556C517.339 71.556 517.583 71.5198 517.773 71.4475C517.954 71.3751 518.116 71.2956 518.243 71.2088C518.36 71.1219 518.469 71.0424 518.559 70.97C518.65 70.8977 518.749 70.8615 518.849 70.8615C518.975 70.8615 519.066 70.9094 519.138 71.0062L519.581 71.5777C519.4 71.7947 519.201 71.9783 518.984 72.1275C518.767 72.2767 518.541 72.3996 518.297 72.4964C518.053 72.5877 517.809 72.6528 517.547 72.6917C517.284 72.7351 517.022 72.7568 516.76 72.7568C516.299 72.7568 515.865 72.6727 515.469 72.5036C515.073 72.33 514.725 72.0813 514.427 71.7585C514.132 71.4303 513.899 71.0324 513.725 70.5649C513.556 70.092 513.472 69.5549 513.472 68.9518C513.472 68.4065 513.549 67.9029 513.704 67.4399C513.857 66.9724 514.082 66.5691 514.376 66.2318C514.675 65.8946 515.044 65.6314 515.483 65.4433C515.919 65.2507 516.425 65.154 517.004 65.154C517.538 65.154 518.008 65.2408 518.415 65.4144C518.822 65.588 519.183 65.834 519.509 66.1523L519.093 66.7165ZM525.54 68.1271C525.54 67.8667 525.504 67.6253 525.423 67.4037C525.35 67.1768 525.242 66.9814 525.097 66.8178C524.952 66.6487 524.771 66.5185 524.554 66.4271C524.347 66.3304 524.102 66.2825 523.822 66.2825C523.252 66.2825 522.809 66.4443 522.484 66.7671C522.167 67.09 521.959 67.5439 521.869 68.1271H525.54ZM521.833 69.082C521.851 69.5016 521.914 69.866 522.023 70.1743C522.14 70.4781 522.285 70.7313 522.466 70.9339C522.656 71.1364 522.873 71.2883 523.135 71.3896C523.388 71.4864 523.677 71.5343 524.003 71.5343C524.301 71.5343 524.564 71.5008 524.79 71.433C525.007 71.3607 525.205 71.2838 525.368 71.2015C525.531 71.1147 525.667 71.0378 525.784 70.97C525.902 70.8977 526.01 70.8615 526.101 70.8615C526.227 70.8615 526.327 70.9094 526.39 71.0062L526.833 71.5777C526.652 71.7947 526.444 71.9783 526.209 72.1275C525.983 72.2767 525.739 72.3996 525.477 72.4964C525.215 72.5877 524.943 72.6528 524.672 72.6917C524.401 72.7351 524.129 72.7568 523.867 72.7568C523.361 72.7568 522.882 72.6727 522.448 72.5036C522.014 72.33 521.634 72.0768 521.308 71.7441C520.992 71.4113 520.739 70.999 520.558 70.5071C520.377 70.0152 520.286 69.4482 520.286 68.8071C520.286 68.2962 520.368 67.8188 520.531 67.3748C520.693 66.9308 520.919 66.5456 521.218 66.2174C521.525 65.8891 521.896 65.6314 522.321 65.4433C522.755 65.2507 523.243 65.154 523.786 65.154C524.247 65.154 524.663 65.229 525.052 65.3782C525.432 65.5229 525.766 65.7372 526.046 66.022C526.327 66.3069 526.544 66.6559 526.698 67.071C526.86 67.4806 526.933 67.949 526.933 68.4743C526.933 68.7158 526.915 68.8767 526.86 68.959C526.806 69.0413 526.707 69.082 526.571 69.082H521.833ZM533.543 70.7964C533.76 71.0758 533.995 71.2739 534.257 71.3896C534.519 71.5008 534.799 71.556 535.116 71.556C535.722 71.556 536.192 71.3344 536.536 70.8905C536.879 70.4465 537.051 69.7864 537.051 68.9084C537.051 68.4553 537.006 68.0692 536.933 67.7509C536.852 67.4281 536.744 67.165 536.599 66.9625C536.454 66.7599 536.273 66.6125 536.074 66.5212C535.866 66.4299 535.631 66.3837 535.369 66.3837C534.971 66.3837 534.628 66.4706 534.338 66.6442C534.058 66.8133 533.796 67.0565 533.543 67.3748V70.7964ZM533.47 66.3403C533.778 65.9786 534.121 65.6866 534.519 65.465C534.908 65.2435 535.369 65.1323 535.894 65.1323C536.3 65.1323 536.68 65.2164 537.015 65.3855C537.358 65.5491 537.648 65.7906 537.883 66.1089C538.127 66.4271 538.317 66.8223 538.444 67.2952C538.579 67.7627 538.643 68.3007 538.643 68.9084C538.643 69.4536 538.57 69.9618 538.425 70.4347C538.281 70.9022 538.064 71.31 537.792 71.6573C537.521 72 537.187 72.2694 536.798 72.4675C536.4 72.6601 535.966 72.7568 535.469 72.7568C535.035 72.7568 534.664 72.6872 534.365 72.547C534.067 72.4069 533.796 72.2143 533.543 71.9683V75.1006H531.987V65.2697H532.928C533.145 65.2697 533.28 65.3683 533.335 65.5663L533.47 66.3403ZM544.999 68.1271C544.999 67.8667 544.954 67.6253 544.882 67.4037C544.809 67.1768 544.701 66.9814 544.556 66.8178C544.411 66.6487 544.231 66.5185 544.014 66.4271C543.797 66.3304 543.553 66.2825 543.272 66.2825C542.712 66.2825 542.269 66.4443 541.943 66.7671C541.617 67.09 541.418 67.5439 541.328 68.1271H544.999ZM541.283 69.082C541.301 69.5016 541.373 69.866 541.482 70.1743C541.59 70.4781 541.735 70.7313 541.925 70.9339C542.106 71.1364 542.332 71.2883 542.585 71.3896C542.847 71.4864 543.137 71.5343 543.453 71.5343C543.76 71.5343 544.023 71.5008 544.24 71.433C544.466 71.3607 544.656 71.2838 544.818 71.2015C544.99 71.1147 545.126 71.0378 545.243 70.97C545.361 70.8977 545.46 70.8615 545.56 70.8615C545.687 70.8615 545.786 70.9094 545.849 71.0062L546.292 71.5777C546.111 71.7947 545.904 71.9783 545.668 72.1275C545.433 72.2767 545.189 72.3996 544.927 72.4964C544.674 72.5877 544.402 72.6528 544.131 72.6917C543.851 72.7351 543.589 72.7568 543.326 72.7568C542.811 72.7568 542.341 72.6727 541.898 72.5036C541.464 72.33 541.084 72.0768 540.767 71.7441C540.442 71.4113 540.198 70.999 540.008 70.5071C539.836 70.0152 539.746 69.4482 539.746 68.8071C539.746 68.2962 539.827 67.8188 539.981 67.3748C540.144 66.9308 540.379 66.5456 540.677 66.2174C540.984 65.8891 541.346 65.6314 541.78 65.4433C542.214 65.2507 542.702 65.154 543.245 65.154C543.697 65.154 544.122 65.229 544.502 65.3782C544.891 65.5229 545.225 65.7372 545.506 66.022C545.786 66.3069 546.003 66.6559 546.157 67.071C546.31 67.4806 546.392 67.949 546.392 68.4743C546.392 68.7158 546.365 68.8767 546.31 68.959C546.256 69.0413 546.166 69.082 546.021 69.082H541.283ZM549.312 66.6369C549.538 66.1694 549.819 65.8023 550.153 65.5374C550.479 65.267 550.868 65.1323 551.329 65.1323C551.492 65.1323 551.636 65.1513 551.781 65.1901C551.917 65.2236 552.043 65.277 552.152 65.3493L552.043 66.5212C552.025 66.6035 551.998 66.6613 551.953 66.6948C551.917 66.7237 551.862 66.7382 551.79 66.7382C551.718 66.7382 551.618 66.7265 551.483 66.702C551.347 66.6731 551.202 66.6586 551.058 66.6586C550.841 66.6586 550.642 66.6903 550.479 66.7527C550.307 66.8151 550.162 66.9073 550.027 67.0276C549.9 67.1478 549.783 67.2952 549.683 67.4688C549.575 67.6424 549.484 67.8405 549.394 68.062V72.6483H547.839V65.2697H548.743C548.915 65.2697 549.023 65.3014 549.086 65.3638C549.15 65.4216 549.195 65.5256 549.213 65.6748L549.312 66.6369ZM560.01 67.5412C560.38 67.5412 560.715 67.4932 560.995 67.3965C561.285 67.2997 561.529 67.165 561.71 66.9914C561.909 66.8133 562.053 66.598 562.144 66.3476C562.243 66.0971 562.288 65.8168 562.288 65.5084C562.288 65.2046 562.243 64.9324 562.144 64.691C562.053 64.4496 561.918 64.2452 561.728 64.0761C561.538 63.907 561.303 63.7795 561.013 63.6927C560.724 63.6014 560.389 63.5553 560.01 63.5553H558.454V67.5412H560.01ZM560.01 62.2315C560.688 62.2315 561.276 62.3111 561.773 62.4702C562.27 62.6294 562.686 62.8536 563.012 63.143C563.337 63.4278 563.581 63.7723 563.735 64.1774C563.898 64.578 563.979 65.0211 563.979 65.5084C563.979 66.0049 563.889 66.4606 563.726 66.8756C563.554 67.2853 563.301 67.6397 562.975 67.939C562.641 68.2329 562.225 68.4644 561.728 68.6335C561.239 68.7972 560.661 68.8794 560.01 68.8794H558.454V72.6483H556.763V62.2315H560.01ZM566.647 66.6369C566.882 66.1694 567.162 65.8023 567.488 65.5374C567.813 65.267 568.211 65.1323 568.663 65.1323C568.826 65.1323 568.971 65.1513 569.115 65.1901C569.251 65.2236 569.378 65.277 569.486 65.3493L569.378 66.5212C569.359 66.6035 569.332 66.6613 569.287 66.6948C569.251 66.7237 569.197 66.7382 569.124 66.7382C569.052 66.7382 568.953 66.7265 568.817 66.702C568.681 66.6731 568.537 66.6586 568.392 66.6586C568.175 66.6586 567.976 66.6903 567.813 66.7527C567.65 66.8151 567.497 66.9073 567.361 67.0276C567.235 67.1478 567.117 67.2952 567.017 67.4688C566.918 67.6424 566.818 67.8405 566.737 68.062V72.6483H565.182V65.2697H566.086C566.249 65.2697 566.357 65.3014 566.421 65.3638C566.484 65.4216 566.529 65.5256 566.556 65.6748L566.647 66.6369ZM573.456 65.154C573.998 65.154 574.496 65.2435 574.93 65.4216C575.373 65.5998 575.752 65.853 576.06 66.1812C576.376 66.5094 576.611 66.9073 576.783 67.3748C576.955 67.8423 577.036 68.3685 577.036 68.9518C577.036 69.535 576.955 70.0613 576.783 70.5288C576.611 70.9963 576.376 71.3968 576.06 71.7296C575.752 72.0578 575.373 72.311 574.93 72.4892C574.496 72.6673 573.998 72.7568 573.456 72.7568C572.904 72.7568 572.407 72.6673 571.964 72.4892C571.53 72.311 571.15 72.0578 570.833 71.7296C570.526 71.3968 570.282 70.9963 570.11 70.5288C569.947 70.0613 569.857 69.535 569.857 68.9518C569.857 68.3685 569.947 67.8423 570.11 67.3748C570.282 66.9073 570.526 66.5094 570.833 66.1812C571.15 65.853 571.53 65.5998 571.964 65.4216C572.407 65.2435 572.904 65.154 573.456 65.154ZM573.456 71.5415C574.125 71.5415 574.613 71.32 574.939 70.876C575.264 70.4275 575.427 69.7882 575.427 68.959C575.427 68.1298 575.264 67.4905 574.939 67.042C574.613 66.589 574.125 66.362 573.456 66.362C572.777 66.362 572.28 66.589 571.955 67.042C571.62 67.4905 571.457 68.1298 571.457 68.959C571.457 69.7882 571.62 70.4275 571.955 70.876C572.28 71.32 572.777 71.5415 573.456 71.5415ZM580.147 65.2697V73.0317C580.147 73.34 580.111 73.6294 580.029 73.8998C579.948 74.1747 579.812 74.4134 579.641 74.6159C579.46 74.8185 579.225 74.9776 578.944 75.0934C578.664 75.2091 578.32 75.267 577.923 75.267C577.751 75.267 577.606 75.2552 577.47 75.2308C577.335 75.2064 577.19 75.1729 577.054 75.1295L577.109 74.2832C577.127 74.1864 577.172 74.1312 577.235 74.1168C577.299 74.1023 577.425 74.0951 577.606 74.0951C577.968 74.0951 578.23 74.0128 578.375 73.8491C578.519 73.69 578.592 73.4178 578.592 73.0317V65.2697H580.147ZM580.4 63.0417C580.4 63.1818 580.373 63.3139 580.319 63.4395C580.265 63.5652 580.192 63.6756 580.093 63.7723C579.993 63.8636 579.885 63.9387 579.758 63.9966C579.632 64.0499 579.496 64.0761 579.351 64.0761C579.216 64.0761 579.08 64.0499 578.953 63.9966C578.836 63.9387 578.727 63.8636 578.628 63.7723C578.537 63.6756 578.465 63.5652 578.411 63.4395C578.366 63.3139 578.339 63.1818 578.339 63.0417C578.339 62.897 578.366 62.7623 578.411 62.6366C578.465 62.5109 578.537 62.4024 578.628 62.3111C578.727 62.2143 578.836 62.1402 578.953 62.0868C579.08 62.0289 579.216 62 579.351 62C579.496 62 579.632 62.0289 579.758 62.0868C579.885 62.1402 579.993 62.2143 580.093 62.3111C580.192 62.4024 580.265 62.5109 580.319 62.6366C580.373 62.7623 580.4 62.897 580.4 63.0417ZM586.947 68.1271C586.947 67.8667 586.902 67.6253 586.829 67.4037C586.757 67.1768 586.648 66.9814 586.504 66.8178C586.359 66.6487 586.178 66.5185 585.961 66.4271C585.744 66.3304 585.5 66.2825 585.22 66.2825C584.659 66.2825 584.216 66.4443 583.89 66.7671C583.565 67.09 583.366 67.5439 583.276 68.1271H586.947ZM583.23 69.082C583.248 69.5016 583.321 69.866 583.429 70.1743C583.538 70.4781 583.683 70.7313 583.872 70.9339C584.053 71.1364 584.279 71.2883 584.533 71.3896C584.795 71.4864 585.084 71.5343 585.401 71.5343C585.708 71.5343 585.97 71.5008 586.187 71.433C586.413 71.3607 586.603 71.2838 586.766 71.2015C586.938 71.1147 587.073 71.0378 587.191 70.97C587.309 70.8977 587.408 70.8615 587.507 70.8615C587.634 70.8615 587.734 70.9094 587.797 71.0062L588.24 71.5777C588.059 71.7947 587.851 71.9783 587.616 72.1275C587.381 72.2767 587.137 72.3996 586.874 72.4964C586.621 72.5877 586.35 72.6528 586.079 72.6917C585.798 72.7351 585.536 72.7568 585.274 72.7568C584.759 72.7568 584.288 72.6727 583.845 72.5036C583.411 72.33 583.032 72.0768 582.715 71.7441C582.39 71.4113 582.145 70.999 581.955 70.5071C581.784 70.0152 581.693 69.4482 581.693 68.8071C581.693 68.2962 581.775 67.8188 581.928 67.3748C582.091 66.9308 582.326 66.5456 582.625 66.2174C582.932 65.8891 583.294 65.6314 583.728 65.4433C584.162 65.2507 584.65 65.154 585.193 65.154C585.645 65.154 586.07 65.229 586.45 65.3782C586.838 65.5229 587.173 65.7372 587.453 66.022C587.734 66.3069 587.951 66.6559 588.104 67.071C588.258 67.4806 588.339 67.949 588.339 68.4743C588.339 68.7158 588.312 68.8767 588.258 68.959C588.204 69.0413 588.113 69.082 587.969 69.082H583.23ZM595.004 66.7165C594.958 66.7789 594.913 66.8277 594.868 66.8612C594.823 66.8946 594.759 66.9118 594.678 66.9118C594.597 66.9118 594.515 66.8829 594.416 66.825C594.334 66.7671 594.226 66.7047 594.099 66.6369C593.982 66.5646 593.837 66.4995 593.656 66.4416C593.484 66.3837 593.267 66.3548 593.005 66.3548C592.671 66.3548 592.372 66.4154 592.119 66.5357C591.866 66.6559 591.658 66.8295 591.486 67.0565C591.314 67.278 591.188 67.5511 591.097 67.8739C591.016 68.1922 590.98 68.5512 590.98 68.9518C590.98 69.3668 591.025 69.7358 591.115 70.0586C591.206 70.3814 591.332 70.6545 591.504 70.876C591.676 71.0975 591.884 71.2666 592.128 71.3824C592.372 71.4981 592.644 71.556 592.951 71.556C593.249 71.556 593.494 71.5198 593.683 71.4475C593.873 71.3751 594.027 71.2956 594.154 71.2088C594.28 71.1219 594.38 71.0424 594.47 70.97C594.561 70.8977 594.66 70.8615 594.759 70.8615C594.886 70.8615 594.986 70.9094 595.049 71.0062L595.492 71.5777C595.311 71.7947 595.112 71.9783 594.895 72.1275C594.678 72.2767 594.452 72.3996 594.208 72.4964C593.973 72.5877 593.72 72.6528 593.457 72.6917C593.195 72.7351 592.933 72.7568 592.671 72.7568C592.21 72.7568 591.784 72.6727 591.378 72.5036C590.989 72.33 590.636 72.0813 590.338 71.7585C590.048 71.4303 589.813 71.0324 589.642 70.5649C589.47 70.092 589.388 69.5549 589.388 68.9518C589.388 68.4065 589.461 67.9029 589.614 67.4399C589.768 66.9724 589.994 66.5691 590.293 66.2318C590.591 65.8946 590.962 65.6314 591.396 65.4433C591.839 65.2507 592.345 65.154 592.915 65.154C593.448 65.154 593.918 65.2408 594.325 65.4144C594.732 65.588 595.103 65.834 595.419 66.1523L595.004 66.7165ZM599.109 72.764C598.494 72.764 598.024 72.5931 597.689 72.2504C597.364 71.9032 597.201 71.4158 597.201 70.7892V66.4923H596.387C596.297 66.4923 596.224 66.466 596.161 66.4127C596.098 66.3548 596.071 66.2707 596.071 66.1595V65.5301L597.264 65.3565L597.599 63.2225C597.626 63.1402 597.671 63.0751 597.725 63.0272C597.78 62.9739 597.861 62.9476 597.96 62.9476H598.756V65.371H600.8V66.4923H598.756V70.6807C598.756 70.9456 598.819 71.1482 598.946 71.2883C599.082 71.4285 599.254 71.4981 599.471 71.4981C599.588 71.4981 599.697 71.4836 599.778 71.4547C599.868 71.4212 599.941 71.3869 600.004 71.3534C600.067 71.3145 600.122 71.2811 600.167 71.2522C600.212 71.2187 600.257 71.2015 600.302 71.2015C600.384 71.2015 600.456 71.2494 600.51 71.3462L600.972 72.1058C600.736 72.3183 600.447 72.4819 600.122 72.5977C599.796 72.7089 599.452 72.764 599.109 72.764Z" fill="white"/>
</g>
<path d="M80.712 297C81.1387 297 81.512 296.949 81.832 296.848C82.152 296.741 82.4187 296.595 82.632 296.408C82.8453 296.221 83.0053 296 83.112 295.744C83.2187 295.483 83.272 295.195 83.272 294.88C83.272 294.251 83.064 293.771 82.648 293.44C82.232 293.109 81.6027 292.944 80.76 292.944H79.24V297H80.712ZM86.136 303H84.464C84.1333 303 83.8933 302.872 83.744 302.616L81.056 298.736C80.9653 298.603 80.8667 298.507 80.76 298.448C80.6533 298.389 80.4933 298.36 80.28 298.36H79.24V303H77.368V291.48H80.76C81.5173 291.48 82.168 291.557 82.712 291.712C83.2613 291.867 83.712 292.088 84.064 292.376C84.416 292.659 84.6747 293 84.84 293.4C85.0107 293.8 85.096 294.245 85.096 294.736C85.096 295.136 85.0347 295.509 84.912 295.856C84.7947 296.203 84.6213 296.517 84.392 296.8C84.168 297.083 83.8907 297.328 83.56 297.536C83.2293 297.744 82.8533 297.907 82.432 298.024C82.6613 298.163 82.8587 298.357 83.024 298.608L86.136 303ZM92.025 298C92.025 297.712 91.9823 297.445 91.897 297.2C91.817 296.949 91.697 296.733 91.537 296.552C91.377 296.365 91.177 296.221 90.937 296.12C90.7023 296.013 90.4303 295.96 90.121 295.96C89.497 295.96 89.0063 296.139 88.649 296.496C88.2917 296.853 88.065 297.355 87.969 298H92.025ZM87.921 299.056C87.9423 299.52 88.0143 299.923 88.137 300.264C88.2597 300.6 88.4223 300.88 88.625 301.104C88.833 301.328 89.0783 301.496 89.361 301.608C89.649 301.715 89.969 301.768 90.321 301.768C90.657 301.768 90.9477 301.731 91.193 301.656C91.4383 301.576 91.6517 301.491 91.833 301.4C92.0143 301.304 92.169 301.219 92.297 301.144C92.425 301.064 92.5423 301.024 92.649 301.024C92.7877 301.024 92.8943 301.077 92.969 301.184L93.457 301.816C93.2543 302.056 93.025 302.259 92.769 302.424C92.513 302.589 92.241 302.725 91.953 302.832C91.665 302.933 91.369 303.005 91.065 303.048C90.761 303.096 90.465 303.12 90.177 303.12C89.6117 303.12 89.0863 303.027 88.601 302.84C88.121 302.648 87.7023 302.368 87.345 302C86.993 301.632 86.7157 301.176 86.513 300.632C86.3157 300.088 86.217 299.461 86.217 298.752C86.217 298.187 86.305 297.659 86.481 297.168C86.6623 296.677 86.9183 296.251 87.249 295.888C87.585 295.525 87.9903 295.24 88.465 295.032C88.945 294.819 89.4863 294.712 90.089 294.712C90.5903 294.712 91.0543 294.795 91.481 294.96C91.9077 295.12 92.2757 295.357 92.585 295.672C92.8943 295.987 93.1343 296.373 93.305 296.832C93.481 297.285 93.569 297.803 93.569 298.384C93.569 298.651 93.5397 298.829 93.481 298.92C93.4223 299.011 93.3157 299.056 93.161 299.056H87.921ZM100.045 296.32C100.002 296.395 99.9543 296.448 99.901 296.48C99.8477 296.512 99.781 296.528 99.701 296.528C99.6103 296.528 99.5117 296.501 99.405 296.448C99.2983 296.389 99.173 296.325 99.029 296.256C98.885 296.187 98.7143 296.125 98.517 296.072C98.325 296.013 98.0983 295.984 97.837 295.984C97.6237 295.984 97.429 296.011 97.253 296.064C97.0823 296.112 96.9357 296.184 96.813 296.28C96.6957 296.371 96.605 296.48 96.541 296.608C96.477 296.731 96.445 296.864 96.445 297.008C96.445 297.2 96.5037 297.36 96.621 297.488C96.7383 297.616 96.893 297.728 97.085 297.824C97.277 297.915 97.4957 297.997 97.741 298.072C97.9863 298.147 98.237 298.227 98.493 298.312C98.749 298.397 98.9997 298.496 99.245 298.608C99.4903 298.72 99.709 298.859 99.901 299.024C100.093 299.184 100.248 299.381 100.365 299.616C100.482 299.845 100.541 300.125 100.541 300.456C100.541 300.84 100.472 301.195 100.333 301.52C100.194 301.845 99.9917 302.128 99.725 302.368C99.4583 302.608 99.125 302.795 98.725 302.928C98.3303 303.061 97.877 303.128 97.365 303.128C97.0823 303.128 96.8077 303.101 96.541 303.048C96.2797 303 96.029 302.933 95.789 302.848C95.5543 302.757 95.333 302.651 95.125 302.528C94.9223 302.405 94.741 302.272 94.581 302.128L94.981 301.472C95.029 301.392 95.0877 301.331 95.157 301.288C95.2317 301.24 95.3223 301.216 95.429 301.216C95.541 301.216 95.6503 301.253 95.757 301.328C95.869 301.397 95.997 301.475 96.141 301.56C96.2903 301.645 96.469 301.725 96.677 301.8C96.885 301.869 97.1437 301.904 97.453 301.904C97.709 301.904 97.9303 301.875 98.117 301.816C98.3037 301.752 98.4583 301.667 98.581 301.56C98.7037 301.453 98.7943 301.333 98.853 301.2C98.9117 301.061 98.941 300.915 98.941 300.76C98.941 300.552 98.8823 300.381 98.765 300.248C98.6477 300.115 98.4903 300 98.293 299.904C98.101 299.808 97.8797 299.723 97.629 299.648C97.3837 299.573 97.133 299.493 96.877 299.408C96.621 299.323 96.3677 299.224 96.117 299.112C95.8717 299 95.6503 298.859 95.453 298.688C95.261 298.512 95.1063 298.301 94.989 298.056C94.8717 297.805 94.813 297.501 94.813 297.144C94.813 296.819 94.877 296.509 95.005 296.216C95.1383 295.923 95.3303 295.664 95.581 295.44C95.837 295.216 96.149 295.04 96.517 294.912C96.8903 294.779 97.3197 294.712 97.805 294.712C98.3543 294.712 98.853 294.8 99.301 294.976C99.749 295.152 100.125 295.392 100.429 295.696L100.045 296.32ZM105.685 294.712C106.288 294.712 106.832 294.811 107.317 295.008C107.808 295.205 108.224 295.485 108.565 295.848C108.912 296.211 109.179 296.651 109.365 297.168C109.552 297.685 109.645 298.267 109.645 298.912C109.645 299.557 109.552 300.139 109.365 300.656C109.179 301.173 108.912 301.616 108.565 301.984C108.224 302.347 107.808 302.627 107.317 302.824C106.832 303.021 106.288 303.12 105.685 303.12C105.077 303.12 104.528 303.021 104.037 302.824C103.552 302.627 103.136 302.347 102.789 301.984C102.443 301.616 102.176 301.173 101.989 300.656C101.803 300.139 101.709 299.557 101.709 298.912C101.709 298.267 101.803 297.685 101.989 297.168C102.176 296.651 102.443 296.211 102.789 295.848C103.136 295.485 103.552 295.205 104.037 295.008C104.528 294.811 105.077 294.712 105.685 294.712ZM105.685 301.776C106.421 301.776 106.968 301.531 107.325 301.04C107.688 300.544 107.869 299.837 107.869 298.92C107.869 298.003 107.688 297.296 107.325 296.8C106.968 296.299 106.421 296.048 105.685 296.048C104.939 296.048 104.384 296.299 104.021 296.8C103.659 297.296 103.477 298.003 103.477 298.92C103.477 299.837 103.659 300.544 104.021 301.04C104.384 301.531 104.939 301.776 105.685 301.776ZM118.178 294.84V303H117.138C116.909 303 116.762 302.891 116.698 302.672L116.57 301.912C116.399 302.093 116.218 302.259 116.026 302.408C115.839 302.557 115.639 302.685 115.426 302.792C115.213 302.899 114.983 302.981 114.738 303.04C114.498 303.099 114.239 303.128 113.962 303.128C113.514 303.128 113.119 303.053 112.778 302.904C112.437 302.755 112.149 302.544 111.914 302.272C111.685 302 111.511 301.675 111.394 301.296C111.277 300.912 111.218 300.491 111.218 300.032V294.84H112.938V300.032C112.938 300.581 113.063 301.008 113.314 301.312C113.57 301.616 113.957 301.768 114.474 301.768C114.853 301.768 115.205 301.683 115.53 301.512C115.861 301.336 116.17 301.096 116.458 300.792V294.84H118.178ZM121.891 296.352C122.147 295.835 122.456 295.429 122.819 295.136C123.181 294.837 123.616 294.688 124.123 294.688C124.299 294.688 124.464 294.709 124.619 294.752C124.773 294.789 124.912 294.848 125.035 294.928L124.915 296.224C124.893 296.315 124.859 296.379 124.811 296.416C124.768 296.448 124.709 296.464 124.635 296.464C124.555 296.464 124.44 296.451 124.291 296.424C124.141 296.392 123.984 296.376 123.819 296.376C123.579 296.376 123.365 296.411 123.179 296.48C122.997 296.549 122.832 296.651 122.683 296.784C122.539 296.917 122.411 297.08 122.299 297.272C122.187 297.464 122.083 297.683 121.987 297.928V303H120.267V294.84H121.267C121.448 294.84 121.573 294.875 121.643 294.944C121.712 295.008 121.76 295.123 121.787 295.288L121.891 296.352ZM131.66 296.44C131.606 296.509 131.556 296.563 131.508 296.6C131.46 296.637 131.39 296.656 131.3 296.656C131.209 296.656 131.113 296.624 131.012 296.56C130.916 296.496 130.798 296.427 130.66 296.352C130.526 296.272 130.364 296.2 130.172 296.136C129.98 296.072 129.74 296.04 129.452 296.04C129.078 296.04 128.75 296.107 128.468 296.24C128.19 296.373 127.956 296.565 127.764 296.816C127.577 297.061 127.436 297.363 127.34 297.72C127.249 298.072 127.204 298.469 127.204 298.912C127.204 299.371 127.254 299.779 127.356 300.136C127.457 300.493 127.601 300.795 127.788 301.04C127.98 301.285 128.209 301.472 128.476 301.6C128.748 301.728 129.052 301.792 129.388 301.792C129.718 301.792 129.988 301.752 130.196 301.672C130.404 301.592 130.577 301.504 130.716 301.408C130.854 301.312 130.972 301.224 131.068 301.144C131.169 301.064 131.276 301.024 131.388 301.024C131.526 301.024 131.633 301.077 131.708 301.184L132.196 301.816C131.998 302.056 131.78 302.259 131.54 302.424C131.3 302.589 131.046 302.725 130.78 302.832C130.513 302.933 130.236 303.005 129.948 303.048C129.66 303.096 129.369 303.12 129.076 303.12C128.569 303.12 128.094 303.027 127.652 302.84C127.214 302.648 126.83 302.373 126.5 302.016C126.174 301.653 125.916 301.213 125.724 300.696C125.537 300.173 125.444 299.579 125.444 298.912C125.444 298.309 125.529 297.752 125.7 297.24C125.87 296.723 126.118 296.277 126.444 295.904C126.774 295.531 127.182 295.24 127.668 295.032C128.153 294.819 128.713 294.712 129.348 294.712C129.94 294.712 130.46 294.808 130.908 295C131.361 295.192 131.764 295.464 132.116 295.816L131.66 296.44ZM138.791 298C138.791 297.712 138.748 297.445 138.663 297.2C138.583 296.949 138.463 296.733 138.303 296.552C138.143 296.365 137.943 296.221 137.703 296.12C137.468 296.013 137.196 295.96 136.887 295.96C136.263 295.96 135.772 296.139 135.415 296.496C135.057 296.853 134.831 297.355 134.735 298H138.791ZM134.687 299.056C134.708 299.52 134.78 299.923 134.903 300.264C135.025 300.6 135.188 300.88 135.391 301.104C135.599 301.328 135.844 301.496 136.127 301.608C136.415 301.715 136.735 301.768 137.087 301.768C137.423 301.768 137.713 301.731 137.959 301.656C138.204 301.576 138.417 301.491 138.599 301.4C138.78 301.304 138.935 301.219 139.063 301.144C139.191 301.064 139.308 301.024 139.415 301.024C139.553 301.024 139.66 301.077 139.735 301.184L140.223 301.816C140.02 302.056 139.791 302.259 139.535 302.424C139.279 302.589 139.007 302.725 138.719 302.832C138.431 302.933 138.135 303.005 137.831 303.048C137.527 303.096 137.231 303.12 136.943 303.12C136.377 303.12 135.852 303.027 135.367 302.84C134.887 302.648 134.468 302.368 134.111 302C133.759 301.632 133.481 301.176 133.279 300.632C133.081 300.088 132.983 299.461 132.983 298.752C132.983 298.187 133.071 297.659 133.247 297.168C133.428 296.677 133.684 296.251 134.015 295.888C134.351 295.525 134.756 295.24 135.231 295.032C135.711 294.819 136.252 294.712 136.855 294.712C137.356 294.712 137.82 294.795 138.247 294.96C138.673 295.12 139.041 295.357 139.351 295.672C139.66 295.987 139.9 296.373 140.071 296.832C140.247 297.285 140.335 297.803 140.335 298.384C140.335 298.651 140.305 298.829 140.247 298.92C140.188 299.011 140.081 299.056 139.927 299.056H134.687ZM145.827 297.456H149.883V298.912H145.827V297.456ZM159.453 301.768C159.799 301.768 160.109 301.72 160.381 301.624C160.653 301.523 160.879 301.384 161.061 301.208C161.247 301.027 161.389 300.813 161.485 300.568C161.581 300.323 161.629 300.056 161.629 299.768C161.629 299.416 161.573 299.112 161.461 298.856C161.354 298.6 161.202 298.389 161.005 298.224C160.813 298.053 160.583 297.928 160.317 297.848C160.05 297.763 159.762 297.72 159.453 297.72C159.143 297.72 158.855 297.763 158.589 297.848C158.322 297.928 158.09 298.053 157.893 298.224C157.701 298.389 157.549 298.6 157.437 298.856C157.33 299.112 157.277 299.416 157.277 299.768C157.277 300.056 157.325 300.323 157.421 300.568C157.517 300.813 157.655 301.027 157.837 301.208C158.023 301.384 158.253 301.523 158.525 301.624C158.797 301.72 159.106 301.768 159.453 301.768ZM159.453 292.672C159.138 292.672 158.861 292.72 158.621 292.816C158.386 292.912 158.191 293.04 158.037 293.2C157.882 293.36 157.765 293.549 157.685 293.768C157.61 293.981 157.573 294.208 157.573 294.448C157.573 294.688 157.605 294.923 157.669 295.152C157.738 295.381 157.845 295.587 157.989 295.768C158.138 295.944 158.333 296.085 158.573 296.192C158.813 296.299 159.106 296.352 159.453 296.352C159.799 296.352 160.093 296.299 160.333 296.192C160.573 296.085 160.765 295.944 160.909 295.768C161.058 295.587 161.165 295.381 161.229 295.152C161.298 294.923 161.333 294.688 161.333 294.448C161.333 294.208 161.293 293.981 161.213 293.768C161.138 293.549 161.021 293.36 160.861 293.2C160.706 293.04 160.511 292.912 160.277 292.816C160.042 292.72 159.767 292.672 159.453 292.672ZM161.269 296.992C161.978 297.211 162.509 297.557 162.861 298.032C163.218 298.507 163.397 299.096 163.397 299.8C163.397 300.307 163.301 300.765 163.109 301.176C162.917 301.587 162.647 301.936 162.301 302.224C161.954 302.512 161.538 302.736 161.053 302.896C160.573 303.051 160.039 303.128 159.453 303.128C158.866 303.128 158.33 303.051 157.845 302.896C157.365 302.736 156.951 302.512 156.605 302.224C156.258 301.936 155.989 301.587 155.797 301.176C155.605 300.765 155.509 300.307 155.509 299.8C155.509 299.096 155.685 298.507 156.037 298.032C156.394 297.557 156.927 297.211 157.637 296.992C157.061 296.763 156.626 296.429 156.333 295.992C156.045 295.555 155.901 295.029 155.901 294.416C155.901 293.984 155.986 293.581 156.157 293.208C156.327 292.835 156.567 292.512 156.877 292.24C157.191 291.963 157.567 291.747 158.005 291.592C158.442 291.432 158.925 291.352 159.453 291.352C159.981 291.352 160.461 291.432 160.893 291.592C161.33 291.747 161.703 291.963 162.013 292.24C162.327 292.512 162.57 292.835 162.741 293.208C162.917 293.581 163.005 293.984 163.005 294.416C163.005 295.029 162.858 295.555 162.565 295.992C162.277 296.429 161.845 296.763 161.269 296.992ZM172.934 297.24C172.934 298.248 172.824 299.12 172.606 299.856C172.392 300.592 172.096 301.203 171.718 301.688C171.339 302.173 170.894 302.533 170.382 302.768C169.87 303.003 169.318 303.12 168.726 303.12C168.134 303.12 167.582 303.003 167.07 302.768C166.558 302.533 166.112 302.173 165.734 301.688C165.36 301.203 165.067 300.592 164.854 299.856C164.64 299.12 164.534 298.248 164.534 297.24C164.534 296.232 164.64 295.36 164.854 294.624C165.067 293.883 165.36 293.272 165.734 292.792C166.112 292.307 166.558 291.947 167.07 291.712C167.582 291.472 168.134 291.352 168.726 291.352C169.318 291.352 169.87 291.472 170.382 291.712C170.894 291.947 171.339 292.307 171.718 292.792C172.096 293.272 172.392 293.883 172.606 294.624C172.824 295.36 172.934 296.232 172.934 297.24ZM171.158 297.24C171.158 296.387 171.088 295.677 170.95 295.112C170.816 294.541 170.638 294.085 170.414 293.744C170.19 293.403 169.931 293.16 169.638 293.016C169.344 292.872 169.04 292.8 168.726 292.8C168.406 292.8 168.099 292.872 167.806 293.016C167.518 293.16 167.262 293.403 167.038 293.744C166.814 294.085 166.635 294.541 166.502 295.112C166.368 295.677 166.302 296.387 166.302 297.24C166.302 298.093 166.368 298.805 166.502 299.376C166.635 299.941 166.814 300.395 167.038 300.736C167.262 301.077 167.518 301.32 167.806 301.464C168.099 301.608 168.406 301.68 168.726 301.68C169.04 301.68 169.344 301.608 169.638 301.464C169.931 301.32 170.19 301.077 170.414 300.736C170.638 300.395 170.816 299.941 170.95 299.376C171.088 298.805 171.158 298.093 171.158 297.24ZM179.247 294.264C179.247 294.707 179.175 295.104 179.031 295.456C178.892 295.808 178.703 296.109 178.463 296.36C178.223 296.605 177.946 296.795 177.631 296.928C177.316 297.056 176.986 297.12 176.639 297.12C176.266 297.12 175.919 297.056 175.599 296.928C175.284 296.795 175.01 296.605 174.775 296.36C174.546 296.109 174.364 295.808 174.231 295.456C174.098 295.104 174.031 294.707 174.031 294.264C174.031 293.811 174.098 293.405 174.231 293.048C174.364 292.685 174.546 292.381 174.775 292.136C175.01 291.885 175.284 291.693 175.599 291.56C175.919 291.427 176.266 291.36 176.639 291.36C177.012 291.36 177.356 291.427 177.671 291.56C177.991 291.693 178.266 291.885 178.495 292.136C178.73 292.381 178.914 292.685 179.047 293.048C179.18 293.405 179.247 293.811 179.247 294.264ZM177.919 294.264C177.919 293.939 177.884 293.664 177.815 293.44C177.751 293.211 177.66 293.027 177.543 292.888C177.431 292.744 177.295 292.643 177.135 292.584C176.98 292.52 176.815 292.488 176.639 292.488C176.458 292.488 176.29 292.52 176.135 292.584C175.98 292.643 175.847 292.744 175.735 292.888C175.623 293.027 175.535 293.211 175.471 293.44C175.407 293.664 175.375 293.939 175.375 294.264C175.375 294.584 175.407 294.853 175.471 295.072C175.535 295.291 175.623 295.469 175.735 295.608C175.847 295.741 175.98 295.837 176.135 295.896C176.29 295.955 176.458 295.984 176.639 295.984C176.815 295.984 176.98 295.955 177.135 295.896C177.295 295.837 177.431 295.741 177.543 295.608C177.66 295.469 177.751 295.291 177.815 295.072C177.884 294.853 177.919 294.584 177.919 294.264ZM183.199 291.76C183.258 291.685 183.327 291.621 183.407 291.568C183.492 291.509 183.61 291.48 183.759 291.48H184.999L176.511 302.736C176.452 302.811 176.38 302.875 176.295 302.928C176.21 302.976 176.106 303 175.983 303H174.703L183.199 291.76ZM185.695 300.288C185.695 300.731 185.623 301.128 185.479 301.48C185.335 301.832 185.143 302.131 184.903 302.376C184.663 302.621 184.386 302.811 184.071 302.944C183.756 303.072 183.426 303.136 183.079 303.136C182.706 303.136 182.359 303.072 182.039 302.944C181.724 302.811 181.45 302.621 181.215 302.376C180.986 302.131 180.804 301.832 180.671 301.48C180.543 301.128 180.479 300.731 180.479 300.288C180.479 299.835 180.543 299.429 180.671 299.072C180.804 298.709 180.986 298.403 181.215 298.152C181.45 297.901 181.724 297.712 182.039 297.584C182.359 297.451 182.706 297.384 183.079 297.384C183.452 297.384 183.799 297.451 184.119 297.584C184.439 297.712 184.714 297.901 184.943 298.152C185.178 298.403 185.362 298.709 185.495 299.072C185.628 299.429 185.695 299.835 185.695 300.288ZM184.367 300.288C184.367 299.963 184.332 299.688 184.263 299.464C184.199 299.235 184.108 299.051 183.991 298.912C183.874 298.768 183.735 298.667 183.575 298.608C183.42 298.544 183.255 298.512 183.079 298.512C182.903 298.512 182.738 298.544 182.583 298.608C182.428 298.667 182.292 298.768 182.175 298.912C182.063 299.051 181.975 299.235 181.911 299.464C181.847 299.688 181.815 299.963 181.815 300.288C181.815 300.608 181.847 300.877 181.911 301.096C181.975 301.315 182.063 301.493 182.175 301.632C182.292 301.765 182.428 301.861 182.583 301.92C182.738 301.979 182.903 302.008 183.079 302.008C183.255 302.008 183.42 301.979 183.575 301.92C183.735 301.861 183.874 301.765 183.991 301.632C184.108 301.493 184.199 301.315 184.263 301.096C184.332 300.877 184.367 300.608 184.367 300.288Z" fill="#949498"/>
</g>
<defs>
<filter id="filter0_d_247_43417" x="119.502" y="50.3729" width="264.683" height="264.678" filterUnits="userSpaceOnUse" color-interpolation-filters="sRGB">
<feFlood flood-opacity="0" result="BackgroundImageFix"/>
<feColorMatrix in="SourceAlpha" type="matrix" values="0 0 0 0 0 0 0 0 0 0 0 0 0 0 0 0 0 0 127 0" result="hardAlpha"/>
<feOffset dx="10" dy="10"/>
<feGaussianBlur stdDeviation="30"/>
<feComposite in2="hardAlpha" operator="out"/>
<feColorMatrix type="matrix" values="0 0 0 0 0 0 0 0 0 0 0 0 0 0 0 0 0 0 0.1 0"/>
<feBlend mode="normal" in2="BackgroundImageFix" result="effect1_dropShadow_247_43417"/>
<feBlend mode="normal" in="SourceGraphic" in2="effect1_dropShadow_247_43417" result="shape"/>
</filter>
<filter id="filter1_d_247_43417" x="-26.1008" y="83.8291" width="370.687" height="306.369" filterUnits="userSpaceOnUse" color-interpolation-filters="sRGB">
<feFlood flood-opacity="0" result="BackgroundImageFix"/>
<feColorMatrix in="SourceAlpha" type="matrix" values="0 0 0 0 0 0 0 0 0 0 0 0 0 0 0 0 0 0 127 0" result="hardAlpha"/>
<feOffset dx="10" dy="10"/>
<feGaussianBlur stdDeviation="30"/>
<feComposite in2="hardAlpha" operator="out"/>
<feColorMatrix type="matrix" values="0 0 0 0 0 0 0 0 0 0 0 0 0 0 0 0 0 0 0.1 0"/>
<feBlend mode="normal" in2="BackgroundImageFix" result="effect1_dropShadow_247_43417"/>
<feBlend mode="normal" in="SourceGraphic" in2="effect1_dropShadow_247_43417" result="shape"/>
</filter>
<filter id="filter2_d_247_43417" x="-26.1008" y="222.986" width="309.177" height="167.212" filterUnits="userSpaceOnUse" color-interpolation-filters="sRGB">
<feFlood flood-opacity="0" result="BackgroundImageFix"/>
<feColorMatrix in="SourceAlpha" type="matrix" values="0 0 0 0 0 0 0 0 0 0 0 0 0 0 0 0 0 0 127 0" result="hardAlpha"/>
<feOffset dx="10" dy="10"/>
<feGaussianBlur stdDeviation="30"/>
<feComposite in2="hardAlpha" operator="out"/>
<feColorMatrix type="matrix" values="0 0 0 0 0 0 0 0 0 0 0 0 0 0 0 0 0 0 0.1 0"/>
<feBlend mode="normal" in2="BackgroundImageFix" result="effect1_dropShadow_247_43417"/>
<feBlend mode="normal" in="SourceGraphic" in2="effect1_dropShadow_247_43417" result="shape"/>
</filter>
<filter id="filter3_d_247_43417" x="419.661" y="50.3737" width="263.811" height="264.678" filterUnits="userSpaceOnUse" color-interpolation-filters="sRGB">
<feFlood flood-opacity="0" result="BackgroundImageFix"/>
<feColorMatrix in="SourceAlpha" type="matrix" values="0 0 0 0 0 0 0 0 0 0 0 0 0 0 0 0 0 0 127 0" result="hardAlpha"/>
<feOffset dx="10" dy="10"/>
<feGaussianBlur stdDeviation="30"/>
<feComposite in2="hardAlpha" operator="out"/>
<feColorMatrix type="matrix" values="0 0 0 0 0 0 0 0 0 0 0 0 0 0 0 0 0 0 0.1 0"/>
<feBlend mode="normal" in2="BackgroundImageFix" result="effect1_dropShadow_247_43417"/>
<feBlend mode="normal" in="SourceGraphic" in2="effect1_dropShadow_247_43417" result="shape"/>
</filter>
<filter id="filter4_d_247_43417" x="274.345" y="198.572" width="360.719" height="167.212" filterUnits="userSpaceOnUse" color-interpolation-filters="sRGB">
<feFlood flood-opacity="0" result="BackgroundImageFix"/>
<feColorMatrix in="SourceAlpha" type="matrix" values="0 0 0 0 0 0 0 0 0 0 0 0 0 0 0 0 0 0 127 0" result="hardAlpha"/>
<feOffset dx="10" dy="10"/>
<feGaussianBlur stdDeviation="30"/>
<feComposite in2="hardAlpha" operator="out"/>
<feColorMatrix type="matrix" values="0 0 0 0 0 0 0 0 0 0 0 0 0 0 0 0 0 0 0.1 0"/>
<feBlend mode="normal" in2="BackgroundImageFix" result="effect1_dropShadow_247_43417"/>
<feBlend mode="normal" in="SourceGraphic" in2="effect1_dropShadow_247_43417" result="shape"/>
</filter>
<radialGradient id="paint0_radial_247_43417" cx="0" cy="0" r="1" gradientUnits="userSpaceOnUse" gradientTransform="translate(386.839 191.671) rotate(127.056) scale(239.748 398.498)">
<stop stop-color="#4E3F78"/>
<stop offset="1" stop-color="#312B42"/>
</radialGradient>
<clipPath id="clip0_247_43417">
<rect width="524" height="383" rx="4" fill="white"/>
</clipPath>
</defs>
</svg>
